<svg xmlns="http://www.w3.org/2000/svg" xmlns:xlink="http://www.w3.org/1999/xlink" xmlns:s="https://github.com/nturley/netlistsvg" width="563" height="255.5"><style>    svg {
        stroke:#000;
        fill:none;
    }
    text {
        fill:#000;
        stroke:none;
        font-size:10px;
        font-weight: bold;
        font-family: "Courier New", monospace;
    }
    line {
        stroke-linecap: round;
    }
    .nodelabel {
        text-anchor: middle;
    }
    .inputPortLabel {
        text-anchor: end;
    }
    .splitjoinBody {
        fill:#000;
    }</style><g s:type="not" transform="translate(521,65)" s:width="30" s:height="20" id="cell_$logic_not$/c:/Users/a1321/Desktop/fpga_project/cpu/user/src/addr_reg.v:14$2"><s:alias val="$_NOT_"/><s:alias val="$not"/><s:alias val="$logic_not"/><path style="fill:#FFE680" d="M0,0 L0,20 L20,10 Z" class="cell_$logic_not$/c:/Users/a1321/Desktop/fpga_project/cpu/user/src/addr_reg.v:14$2"/><circle cx="24" cy="10" r="3" class="cell_$logic_not$/c:/Users/a1321/Desktop/fpga_project/cpu/user/src/addr_reg.v:14$2"/><g s:x="-1" s:y="10" s:pid="A"/><g s:x="27" s:y="10" s:pid="Y"/></g><g s:type="generic" transform="translate(378,135.5)" s:width="60" s:height="45" id="cell_$procdff$7"><text x="30" y="-4" class="nodelabel cell_$procdff$7" s:attribute="ref">$adff-bus-bus</text><rect style="fill:#EDF5FF" width="60" height="65" rx="5" ry="5" s:generic="body" class="cell_$procdff$7"/><g transform="translate(0,15)" s:x="0" s:y="15" s:pid="in0" id="port_$procdff$7~ARST"><text x="-3" y="-4" class="inputPortLabel cell_$procdff$7">ARST</text></g><g transform="translate(0,35)" s:x="0" s:y="15" s:pid="in0" id="port_$procdff$7~CLK"><text x="-3" y="-4" class="inputPortLabel cell_$procdff$7">CLK</text></g><g transform="translate(0,55)" s:x="0" s:y="15" s:pid="in0" id="port_$procdff$7~D"><text x="-3" y="-4" class="inputPortLabel cell_$procdff$7">D</text></g><g transform="translate(60,15)" s:x="60" s:y="15" s:pid="out0" id="port_$procdff$7~Q"><text x="5" y="-4" style="fill:#000; stroke:none" class="cell_$procdff$7">Q</text></g></g><g s:type="generic" transform="translate(173,175.5)" s:width="60" s:height="45" id="cell_$procmux$5"><text x="30" y="-4" class="nodelabel cell_$procmux$5" s:attribute="ref">$mux-bus-bus</text><rect style="fill:#EDF5FF" width="60" height="65" rx="5" ry="5" s:generic="body" class="cell_$procmux$5"/><g transform="translate(0,15)" s:x="0" s:y="15" s:pid="in0" id="port_$procmux$5~A"><text x="-3" y="-4" class="inputPortLabel cell_$procmux$5">A</text></g><g transform="translate(0,35)" s:x="0" s:y="15" s:pid="in0" id="port_$procmux$5~B"><text x="-3" y="-4" class="inputPortLabel cell_$procmux$5">B</text></g><g transform="translate(0,55)" s:x="0" s:y="15" s:pid="in0" id="port_$procmux$5~S"><text x="-3" y="-4" class="inputPortLabel cell_$procmux$5">S</text></g><g transform="translate(60,15)" s:x="60" s:y="15" s:pid="out0" id="port_$procmux$5~Y"><text x="5" y="-4" style="fill:#000; stroke:none" class="cell_$procmux$5">Y</text></g></g><g s:type="inputExt" transform="translate(12,164)" s:width="30" s:height="20" id="cell_load_addr"><text x="15" y="-4" class="nodelabel cell_load_addr" s:attribute="ref">load_addr</text><s:alias val="$_inputExt_"/><path style="fill:#FDF766" d="M0,0 L0,16 L15,16 L24,8 L15,0 Z" class="cell_load_addr"/><g s:x="24" s:y="8" s:pid="Y"/></g><g s:type="inputExt" transform="translate(101,223)" s:width="30" s:height="20" id="cell_LDAR"><text x="15" y="-4" class="nodelabel cell_LDAR" s:attribute="ref">LDAR</text><s:alias val="$_inputExt_"/><path style="fill:#FDF766" d="M0,0 L0,16 L15,16 L24,8 L15,0 Z" class="cell_LDAR"/><g s:x="24" s:y="8" s:pid="Y"/></g><g s:type="outputExt" transform="translate(521,143)" s:width="30" s:height="20" id="cell_ABUSD"><text x="15" y="-4" class="nodelabel cell_ABUSD" s:attribute="ref">ABUSD</text><s:alias val="$_outputExt_"/><path style="fill:#66FDD9" d="M24,0 L24,16 L10,16 L0,8 L10,0 Z" class="cell_ABUSD"/><g s:x="0" s:y="8" s:pid="A"/></g><g s:type="inputExt" transform="translate(276,132)" s:width="30" s:height="20" id="cell_sys_clk"><text x="15" y="-4" class="nodelabel cell_sys_clk" s:attribute="ref">sys_clk</text><s:alias val="$_inputExt_"/><path style="fill:#FDF766" d="M0,0 L0,16 L15,16 L24,8 L15,0 Z" class="cell_sys_clk"/><g s:x="24" s:y="8" s:pid="Y"/></g><g s:type="inputExt" transform="translate(276,67)" s:width="30" s:height="20" id="cell_sys_rst"><text x="15" y="-4" class="nodelabel cell_sys_rst" s:attribute="ref">sys_rst</text><s:alias val="$_inputExt_"/><path style="fill:#FDF766" d="M0,0 L0,16 L15,16 L24,8 L15,0 Z" class="cell_sys_rst"/><g s:x="24" s:y="8" s:pid="Y"/></g><line x1="300" x2="520" y1="75" y2="75" class="net_20 width_1" style="stroke-width: 1"/><line x1="300" x2="338" y1="75" y2="75" class="net_20 width_1" style="stroke-width: 1"/><line x1="338" x2="338" y1="75" y2="151" class="net_20 width_1" style="stroke-width: 1"/><circle cx="338" cy="75" r="2" style="fill:#000" class="net_20 width_1"/><line x1="338" x2="378" y1="151" y2="151" class="net_20 width_1" style="stroke-width: 1"/><line x1="300" x2="328" y1="140" y2="140" class="net_19 width_1" style="stroke-width: 1"/><line x1="328" x2="328" y1="140" y2="171" class="net_19 width_1" style="stroke-width: 1"/><line x1="328" x2="378" y1="171" y2="171" class="net_19 width_1" style="stroke-width: 1"/><line x1="234" x2="378" y1="191" y2="191" class="net_22,23,24,25,26,27,28,29 width_8" style="stroke-width: 2"/><line x1="439" x2="456" y1="151" y2="151" class="net_11,12,13,14,15,16,17,18 width_8" style="stroke-width: 2"/><line x1="456" x2="456" y1="151" y2="16" class="net_11,12,13,14,15,16,17,18 width_8" style="stroke-width: 2"/><line x1="456" x2="151" y1="16" y2="16" class="net_11,12,13,14,15,16,17,18 width_8" style="stroke-width: 2"/><line x1="151" x2="151" y1="16" y2="191" class="net_11,12,13,14,15,16,17,18 width_8" style="stroke-width: 2"/><circle cx="456" cy="151" r="3" style="fill:#000" class="net_11,12,13,14,15,16,17,18 width_8"/><line x1="151" x2="173" y1="191" y2="191" class="net_11,12,13,14,15,16,17,18 width_8" style="stroke-width: 2"/><line x1="439" x2="521" y1="151" y2="151" class="net_11,12,13,14,15,16,17,18 width_8" style="stroke-width: 2"/><line x1="36" x2="141" y1="172" y2="172" class="net_2,3,4,5,6,7,8,9 width_8" style="stroke-width: 2"/><line x1="141" x2="141" y1="172" y2="211" class="net_2,3,4,5,6,7,8,9 width_8" style="stroke-width: 2"/><line x1="141" x2="173" y1="211" y2="211" class="net_2,3,4,5,6,7,8,9 width_8" style="stroke-width: 2"/><line x1="125" x2="173" y1="231" y2="231" class="net_10 width_1" style="stroke-width: 1"/><rect x="296" y="186" width="16" height="9" class="net_22,23,24,25,26,27,28,29 width_8 busLabel_8" style="fill: white; stroke: none"/><text x="295" y="194" class="net_22,23,24,25,26,27,28,29 width_8 busLabel_8">/8/</text><rect x="482" y="146" width="16" height="9" class="net_11,12,13,14,15,16,17,18 width_8 busLabel_8" style="fill: white; stroke: none"/><text x="481" y="154" class="net_11,12,13,14,15,16,17,18 width_8 busLabel_8">/8/</text><rect x="482" y="146" width="16" height="9" class="net_11,12,13,14,15,16,17,18 width_8 busLabel_8" style="fill: white; stroke: none"/><text x="481" y="154" class="net_11,12,13,14,15,16,17,18 width_8 busLabel_8">/8/</text><rect x="115" y="167" width="16" height="9" class="net_2,3,4,5,6,7,8,9 width_8 busLabel_8" style="fill: white; stroke: none"/><text x="114" y="175" class="net_2,3,4,5,6,7,8,9 width_8 busLabel_8">/8/</text></svg>