<svg xmlns="http://www.w3.org/2000/svg" xmlns:xlink="http://www.w3.org/1999/xlink" xmlns:s="https://github.com/nturley/netlistsvg" width="685" height="371"><style>    svg {
        stroke:#000;
        fill:none;
    }
    text {
        fill:#000;
        stroke:none;
        font-size:10px;
        font-weight: bold;
        font-family: "Courier New", monospace;
    }
    line {
        stroke-linecap: round;
    }
    .nodelabel {
        text-anchor: middle;
    }
    .inputPortLabel {
        text-anchor: end;
    }
    .splitjoinBody {
        fill:#000;
    }</style><g s:type="add" transform="translate(282.5,151)" s:width="30" s:height="30" id="cell_$add$/c:/Users/a1321/Desktop/fpga_project/cpu/user/src/PC_counter.v:26$9"><s:alias val="$add"/><circle r="15" cx="12.5" cy="12.5" class="cell_$add$/c:/Users/a1321/Desktop/fpga_project/cpu/user/src/PC_counter.v:26$9"/><line x1="7.5" x2="17.5" y1="12.5" y2="12.5" class="cell_$add$/c:/Users/a1321/Desktop/fpga_project/cpu/user/src/PC_counter.v:26$9"/><line x1="12.5" x2="12.5" y1="7.5" y2="17.5" class="cell_$add$/c:/Users/a1321/Desktop/fpga_project/cpu/user/src/PC_counter.v:26$9"/><g s:x="0" s:y="2.5" s:pid="A"/><g s:x="0" s:y="22.5" s:pid="B"/><g s:x="27.5" s:y="12.5" s:pid="Y"/></g><g s:type="not" transform="translate(435.5,322)" s:width="30" s:height="20" id="cell_$eq$/c:/Users/a1321/Desktop/fpga_project/cpu/user/src/PC_counter.v:22$4"><s:alias val="$_NOT_"/><s:alias val="$not"/><s:alias val="$logic_not"/><path style="fill:#FFE680" d="M0,0 L0,20 L20,10 Z" class="cell_$eq$/c:/Users/a1321/Desktop/fpga_project/cpu/user/src/PC_counter.v:22$4"/><circle cx="24" cy="10" r="3" class="cell_$eq$/c:/Users/a1321/Desktop/fpga_project/cpu/user/src/PC_counter.v:22$4"/><g s:x="-1" s:y="10" s:pid="A"/><g s:x="27" s:y="10" s:pid="Y"/></g><g s:type="not" transform="translate(283,216)" s:width="30" s:height="20" id="cell_$eq$/c:/Users/a1321/Desktop/fpga_project/cpu/user/src/PC_counter.v:25$6"><s:alias val="$_NOT_"/><s:alias val="$not"/><s:alias val="$logic_not"/><path style="fill:#FFE680" d="M0,0 L0,20 L20,10 Z" class="cell_$eq$/c:/Users/a1321/Desktop/fpga_project/cpu/user/src/PC_counter.v:25$6"/><circle cx="24" cy="10" r="3" class="cell_$eq$/c:/Users/a1321/Desktop/fpga_project/cpu/user/src/PC_counter.v:25$6"/><g s:x="-1" s:y="10" s:pid="A"/><g s:x="27" s:y="10" s:pid="Y"/></g><g s:type="and" transform="translate(523,306)" s:width="30" s:height="25" id="cell_$logic_and$/c:/Users/a1321/Desktop/fpga_project/cpu/user/src/PC_counter.v:22$5"><s:alias val="$and"/><s:alias val="$logic_and"/><s:alias val="$_AND_"/><s:alias val="$reduce_and"/><path style="fill:#80D4FF" d="M0,0 L0,25 L15,25 A15 12.5 0 0 0 15,0 Z" class="cell_$logic_and$/c:/Users/a1321/Desktop/fpga_project/cpu/user/src/PC_counter.v:22$5"/><g s:x="0" s:y="5" s:pid="A"/><g s:x="0" s:y="20" s:pid="B"/><g s:x="30" s:y="12.5" s:pid="Y"/><text x="3.0" y="15" class="smalltext">and</text></g><g s:type="and" transform="translate(348,221)" s:width="30" s:height="25" id="cell_$logic_and$/c:/Users/a1321/Desktop/fpga_project/cpu/user/src/PC_counter.v:25$8"><s:alias val="$and"/><s:alias val="$logic_and"/><s:alias val="$_AND_"/><s:alias val="$reduce_and"/><path style="fill:#80D4FF" d="M0,0 L0,25 L15,25 A15 12.5 0 0 0 15,0 Z" class="cell_$logic_and$/c:/Users/a1321/Desktop/fpga_project/cpu/user/src/PC_counter.v:25$8"/><g s:x="0" s:y="5" s:pid="A"/><g s:x="0" s:y="20" s:pid="B"/><g s:x="30" s:y="12.5" s:pid="Y"/><text x="3.0" y="15" class="smalltext">and</text></g><g s:type="not" transform="translate(595,20)" s:width="30" s:height="20" id="cell_$logic_not$/c:/Users/a1321/Desktop/fpga_project/cpu/user/src/PC_counter.v:19$2"><s:alias val="$_NOT_"/><s:alias val="$not"/><s:alias val="$logic_not"/><path style="fill:#FFE680" d="M0,0 L0,20 L20,10 Z" class="cell_$logic_not$/c:/Users/a1321/Desktop/fpga_project/cpu/user/src/PC_counter.v:19$2"/><circle cx="24" cy="10" r="3" class="cell_$logic_not$/c:/Users/a1321/Desktop/fpga_project/cpu/user/src/PC_counter.v:19$2"/><g s:x="-1" s:y="10" s:pid="A"/><g s:x="27" s:y="10" s:pid="Y"/></g><g s:type="generic" transform="translate(114,77.5)" s:width="60" s:height="45" id="cell_$procdff$16"><text x="30" y="-4" class="nodelabel cell_$procdff$16" s:attribute="ref">$adff-bus-bus</text><rect style="fill:#EDF5FF" width="60" height="65" rx="5" ry="5" s:generic="body" class="cell_$procdff$16"/><g transform="translate(0,15)" s:x="0" s:y="15" s:pid="in0" id="port_$procdff$16~ARST"><text x="-3" y="-4" class="inputPortLabel cell_$procdff$16">ARST</text></g><g transform="translate(0,35)" s:x="0" s:y="15" s:pid="in0" id="port_$procdff$16~CLK"><text x="-3" y="-4" class="inputPortLabel cell_$procdff$16">CLK</text></g><g transform="translate(0,55)" s:x="0" s:y="15" s:pid="in0" id="port_$procdff$16~D"><text x="-3" y="-4" class="inputPortLabel cell_$procdff$16">D</text></g><g transform="translate(60,15)" s:x="60" s:y="15" s:pid="out0" id="port_$procdff$16~Q"><text x="5" y="-4" style="fill:#000; stroke:none" class="cell_$procdff$16">Q</text></g></g><g s:type="generic" transform="translate(420,128)" s:width="60" s:height="45" id="cell_$procmux$11"><text x="30" y="-4" class="nodelabel cell_$procmux$11" s:attribute="ref">$mux-bus-bus</text><rect style="fill:#EDF5FF" width="60" height="65" rx="5" ry="5" s:generic="body" class="cell_$procmux$11"/><g transform="translate(0,15)" s:x="0" s:y="15" s:pid="in0" id="port_$procmux$11~A"><text x="-3" y="-4" class="inputPortLabel cell_$procmux$11">A</text></g><g transform="translate(0,35)" s:x="0" s:y="15" s:pid="in0" id="port_$procmux$11~B"><text x="-3" y="-4" class="inputPortLabel cell_$procmux$11">B</text></g><g transform="translate(0,55)" s:x="0" s:y="15" s:pid="in0" id="port_$procmux$11~S"><text x="-3" y="-4" class="inputPortLabel cell_$procmux$11">S</text></g><g transform="translate(60,15)" s:x="60" s:y="15" s:pid="out0" id="port_$procmux$11~Y"><text x="5" y="-4" style="fill:#000; stroke:none" class="cell_$procmux$11">Y</text></g></g><g s:type="generic" transform="translate(595,213.5)" s:width="60" s:height="45" id="cell_$procmux$14"><text x="30" y="-4" class="nodelabel cell_$procmux$14" s:attribute="ref">$mux-bus-bus</text><rect style="fill:#EDF5FF" width="60" height="65" rx="5" ry="5" s:generic="body" class="cell_$procmux$14"/><g transform="translate(0,15)" s:x="0" s:y="15" s:pid="in0" id="port_$procmux$14~A"><text x="-3" y="-4" class="inputPortLabel cell_$procmux$14">A</text></g><g transform="translate(0,35)" s:x="0" s:y="15" s:pid="in0" id="port_$procmux$14~B"><text x="-3" y="-4" class="inputPortLabel cell_$procmux$14">B</text></g><g transform="translate(0,55)" s:x="0" s:y="15" s:pid="in0" id="port_$procmux$14~S"><text x="-3" y="-4" class="inputPortLabel cell_$procmux$14">S</text></g><g transform="translate(60,15)" s:x="60" s:y="15" s:pid="out0" id="port_$procmux$14~Y"><text x="5" y="-4" style="fill:#000; stroke:none" class="cell_$procmux$14">Y</text></g></g><g s:type="inputExt" transform="translate(434,241)" s:width="30" s:height="20" id="cell_load_addr"><text x="15" y="-4" class="nodelabel cell_load_addr" s:attribute="ref">load_addr</text><s:alias val="$_inputExt_"/><path style="fill:#FDF766" d="M0,0 L0,16 L15,16 L24,8 L15,0 Z" class="cell_load_addr"/><g s:x="24" s:y="8" s:pid="Y"/></g><g s:type="inputExt" transform="translate(283,281)" s:width="30" s:height="20" id="cell_LDPC"><text x="15" y="-4" class="nodelabel cell_LDPC" s:attribute="ref">LDPC</text><s:alias val="$_inputExt_"/><path style="fill:#FDF766" d="M0,0 L0,16 L15,16 L24,8 L15,0 Z" class="cell_LDPC"/><g s:x="24" s:y="8" s:pid="Y"/></g><g s:type="inputExt" transform="translate(217,218)" s:width="30" s:height="20" id="cell_LOAD"><text x="15" y="-4" class="nodelabel cell_LOAD" s:attribute="ref">LOAD</text><s:alias val="$_inputExt_"/><path style="fill:#FDF766" d="M0,0 L0,16 L15,16 L24,8 L15,0 Z" class="cell_LOAD"/><g s:x="24" s:y="8" s:pid="Y"/></g><g s:type="outputExt" transform="translate(595,85)" s:width="30" s:height="20" id="cell_ABUSI"><text x="15" y="-4" class="nodelabel cell_ABUSI" s:attribute="ref">ABUSI</text><s:alias val="$_outputExt_"/><path style="fill:#66FDD9" d="M24,0 L24,16 L10,16 L0,8 L10,0 Z" class="cell_ABUSI"/><g s:x="0" s:y="8" s:pid="A"/></g><g s:type="inputExt" transform="translate(12,105)" s:width="30" s:height="20" id="cell_sys_clk"><text x="15" y="-4" class="nodelabel cell_sys_clk" s:attribute="ref">sys_clk</text><s:alias val="$_inputExt_"/><path style="fill:#FDF766" d="M0,0 L0,16 L15,16 L24,8 L15,0 Z" class="cell_sys_clk"/><g s:x="24" s:y="8" s:pid="Y"/></g><g s:type="inputExt" transform="translate(12,22)" s:width="30" s:height="20" id="cell_sys_rst"><text x="15" y="-4" class="nodelabel cell_sys_rst" s:attribute="ref">sys_rst</text><s:alias val="$_inputExt_"/><path style="fill:#FDF766" d="M0,0 L0,16 L15,16 L24,8 L15,0 Z" class="cell_sys_rst"/><g s:x="24" s:y="8" s:pid="Y"/></g><line x1="175" x2="192" y1="93" y2="93" class="net_12,13,14,15,16,17,18,19 width_8" style="stroke-width: 2"/><line x1="192" x2="192" y1="93" y2="153.5" class="net_12,13,14,15,16,17,18,19 width_8" style="stroke-width: 2"/><circle cx="192" cy="93" r="3" style="fill:#000" class="net_12,13,14,15,16,17,18,19 width_8"/><line x1="192" x2="282.5" y1="153.5" y2="153.5" class="net_12,13,14,15,16,17,18,19 width_8" style="stroke-width: 2"/><line x1="175" x2="257" y1="93" y2="93" class="net_12,13,14,15,16,17,18,19 width_8" style="stroke-width: 2"/><line x1="257" x2="257" y1="93" y2="110" class="net_12,13,14,15,16,17,18,19 width_8" style="stroke-width: 2"/><line x1="257" x2="388" y1="110" y2="110" class="net_12,13,14,15,16,17,18,19 width_8" style="stroke-width: 2"/><line x1="388" x2="388" y1="110" y2="143.5" class="net_12,13,14,15,16,17,18,19 width_8" style="stroke-width: 2"/><circle cx="257" cy="93" r="3" style="fill:#000" class="net_12,13,14,15,16,17,18,19 width_8"/><line x1="388" x2="420" y1="143.5" y2="143.5" class="net_12,13,14,15,16,17,18,19 width_8" style="stroke-width: 2"/><line x1="175" x2="595" y1="93" y2="93" class="net_12,13,14,15,16,17,18,19 width_8" style="stroke-width: 2"/><line x1="307" x2="323" y1="289" y2="289" class="net_10 width_1" style="stroke-width: 1"/><line x1="323" x2="323" y1="289" y2="332" class="net_10 width_1" style="stroke-width: 1"/><circle cx="323" cy="289" r="2" style="fill:#000" class="net_10 width_1"/><line x1="323" x2="434.5" y1="332" y2="332" class="net_10 width_1" style="stroke-width: 1"/><line x1="307" x2="323" y1="289" y2="289" class="net_10 width_1" style="stroke-width: 1"/><line x1="323" x2="323" y1="289" y2="241" class="net_10 width_1" style="stroke-width: 1"/><line x1="323" x2="348" y1="241" y2="241" class="net_10 width_1" style="stroke-width: 1"/><line x1="241" x2="282" y1="226" y2="226" class="net_11 width_1" style="stroke-width: 1"/><line x1="241" x2="257" y1="226" y2="226" class="net_11 width_1" style="stroke-width: 1"/><line x1="257" x2="257" y1="226" y2="311" class="net_11 width_1" style="stroke-width: 1"/><circle cx="257" cy="226" r="2" style="fill:#000" class="net_11 width_1"/><line x1="257" x2="523" y1="311" y2="311" class="net_11 width_1" style="stroke-width: 1"/><line x1="462.5" x2="498" y1="332" y2="332" class="net_30 width_1" style="stroke-width: 1"/><line x1="498" x2="498" y1="332" y2="326" class="net_30 width_1" style="stroke-width: 1"/><line x1="498" x2="523" y1="326" y2="326" class="net_30 width_1" style="stroke-width: 1"/><line x1="310" x2="348" y1="226" y2="226" class="net_31 width_1" style="stroke-width: 1"/><line x1="36" x2="594" y1="30" y2="30" class="net_21 width_1" style="stroke-width: 1"/><line x1="36" x2="64" y1="30" y2="30" class="net_21 width_1" style="stroke-width: 1"/><line x1="64" x2="64" y1="30" y2="93" class="net_21 width_1" style="stroke-width: 1"/><circle cx="64" cy="30" r="2" style="fill:#000" class="net_21 width_1"/><line x1="64" x2="114" y1="93" y2="93" class="net_21 width_1" style="stroke-width: 1"/><line x1="36" x2="114" y1="113" y2="113" class="net_20 width_1" style="stroke-width: 1"/><line x1="656" x2="673" y1="229" y2="229" class="net_35,36,37,38,39,40,41,42 width_8" style="stroke-width: 2"/><line x1="673" x2="673" y1="229" y2="353" class="net_35,36,37,38,39,40,41,42 width_8" style="stroke-width: 2"/><line x1="673" x2="64" y1="353" y2="353" class="net_35,36,37,38,39,40,41,42 width_8" style="stroke-width: 2"/><line x1="64" x2="64" y1="353" y2="133" class="net_35,36,37,38,39,40,41,42 width_8" style="stroke-width: 2"/><line x1="64" x2="114" y1="133" y2="133" class="net_35,36,37,38,39,40,41,42 width_8" style="stroke-width: 2"/><line x1="310" x2="420" y1="163.5" y2="163.5" class="net_22,23,24,25,26,27,28,29 width_8" style="stroke-width: 2"/><line x1="378" x2="388" y1="233.5" y2="233.5" class="net_33 width_1" style="stroke-width: 1"/><line x1="388" x2="388" y1="233.5" y2="183.5" class="net_33 width_1" style="stroke-width: 1"/><line x1="388" x2="420" y1="183.5" y2="183.5" class="net_33 width_1" style="stroke-width: 1"/><line x1="481" x2="563" y1="143.5" y2="143.5" class="net_43,44,45,46,47,48,49,50 width_8" style="stroke-width: 2"/><line x1="563" x2="563" y1="143.5" y2="229" class="net_43,44,45,46,47,48,49,50 width_8" style="stroke-width: 2"/><line x1="563" x2="595" y1="229" y2="229" class="net_43,44,45,46,47,48,49,50 width_8" style="stroke-width: 2"/><line x1="458" x2="595" y1="249" y2="249" class="net_2,3,4,5,6,7,8,9 width_8" style="stroke-width: 2"/><line x1="553" x2="563" y1="318.5" y2="318.5" class="net_32 width_1" style="stroke-width: 1"/><line x1="563" x2="563" y1="318.5" y2="269" class="net_32 width_1" style="stroke-width: 1"/><line x1="563" x2="595" y1="269" y2="269" class="net_32 width_1" style="stroke-width: 1"/><rect x="362" y="88" width="16" height="9" class="net_12,13,14,15,16,17,18,19 width_8 busLabel_8" style="fill: white; stroke: none"/><text x="361" y="96" class="net_12,13,14,15,16,17,18,19 width_8 busLabel_8">/8/</text><rect x="362" y="88" width="16" height="9" class="net_12,13,14,15,16,17,18,19 width_8 busLabel_8" style="fill: white; stroke: none"/><text x="361" y="96" class="net_12,13,14,15,16,17,18,19 width_8 busLabel_8">/8/</text><rect x="362" y="88" width="16" height="9" class="net_12,13,14,15,16,17,18,19 width_8 busLabel_8" style="fill: white; stroke: none"/><text x="361" y="96" class="net_12,13,14,15,16,17,18,19 width_8 busLabel_8">/8/</text><rect x="362" y="348" width="16" height="9" class="net_35,36,37,38,39,40,41,42 width_8 busLabel_8" style="fill: white; stroke: none"/><text x="361" y="356" class="net_35,36,37,38,39,40,41,42 width_8 busLabel_8">/8/</text><rect x="362" y="158.5" width="16" height="9" class="net_22,23,24,25,26,27,28,29 width_8 busLabel_8" style="fill: white; stroke: none"/><text x="361" y="166.5" class="net_22,23,24,25,26,27,28,29 width_8 busLabel_8">/8/</text><rect x="537" y="138.5" width="16" height="9" class="net_43,44,45,46,47,48,49,50 width_8 busLabel_8" style="fill: white; stroke: none"/><text x="536" y="146.5" class="net_43,44,45,46,47,48,49,50 width_8 busLabel_8">/8/</text><rect x="537" y="244" width="16" height="9" class="net_2,3,4,5,6,7,8,9 width_8 busLabel_8" style="fill: white; stroke: none"/><text x="536" y="252" class="net_2,3,4,5,6,7,8,9 width_8 busLabel_8">/8/</text></svg>