<svg xmlns="http://www.w3.org/2000/svg" xmlns:xlink="http://www.w3.org/1999/xlink" xmlns:s="https://github.com/nturley/netlistsvg" width="716" height="1397"><style>    svg {
        stroke:#000;
        fill:none;
    }
    text {
        fill:#000;
        stroke:none;
        font-size:10px;
        font-weight: bold;
        font-family: "Courier New", monospace;
    }
    line {
        stroke-linecap: round;
    }
    .nodelabel {
        text-anchor: middle;
    }
    .inputPortLabel {
        text-anchor: end;
    }
    .splitjoinBody {
        fill:#000;
    }</style><g s:type="not" transform="translate(596,12)" s:width="30" s:height="20" id="cell_$logic_not$/c:/Users/a1321/Desktop/fpga_project/cpu/user/src/register_stack.v:40$2"><s:alias val="$_NOT_"/><s:alias val="$not"/><s:alias val="$logic_not"/><path style="fill:#FFE680" d="M0,0 L0,20 L20,10 Z" class="cell_$logic_not$/c:/Users/a1321/Desktop/fpga_project/cpu/user/src/register_stack.v:40$2"/><circle cx="24" cy="10" r="3" class="cell_$logic_not$/c:/Users/a1321/Desktop/fpga_project/cpu/user/src/register_stack.v:40$2"/><g s:x="-1" s:y="10" s:pid="A"/><g s:x="27" s:y="10" s:pid="Y"/></g><g s:type="not" transform="translate(596,1315)" s:width="30" s:height="20" id="cell_$logic_not$/c:/Users/a1321/Desktop/fpga_project/cpu/user/src/register_stack.v:47$3"><s:alias val="$_NOT_"/><s:alias val="$not"/><s:alias val="$logic_not"/><path style="fill:#FFE680" d="M0,0 L0,20 L20,10 Z" class="cell_$logic_not$/c:/Users/a1321/Desktop/fpga_project/cpu/user/src/register_stack.v:47$3"/><circle cx="24" cy="10" r="3" class="cell_$logic_not$/c:/Users/a1321/Desktop/fpga_project/cpu/user/src/register_stack.v:47$3"/><g s:x="-1" s:y="10" s:pid="A"/><g s:x="27" s:y="10" s:pid="Y"/></g><g s:type="generic" transform="translate(235,1201)" s:width="60" s:height="45" id="cell_$procdff$36"><text x="30" y="-4" class="nodelabel cell_$procdff$36" s:attribute="ref">$adff-bus-bus</text><rect style="fill:#EDF5FF" width="60" height="65" rx="5" ry="5" s:generic="body" class="cell_$procdff$36"/><g transform="translate(0,15)" s:x="0" s:y="15" s:pid="in0" id="port_$procdff$36~ARST"><text x="-3" y="-4" class="inputPortLabel cell_$procdff$36">ARST</text></g><g transform="translate(0,35)" s:x="0" s:y="15" s:pid="in0" id="port_$procdff$36~CLK"><text x="-3" y="-4" class="inputPortLabel cell_$procdff$36">CLK</text></g><g transform="translate(0,55)" s:x="0" s:y="15" s:pid="in0" id="port_$procdff$36~D"><text x="-3" y="-4" class="inputPortLabel cell_$procdff$36">D</text></g><g transform="translate(60,15)" s:x="60" s:y="15" s:pid="out0" id="port_$procdff$36~Q"><text x="5" y="-4" style="fill:#000; stroke:none" class="cell_$procdff$36">Q</text></g></g><g s:type="generic" transform="translate(235,43)" s:width="60" s:height="45" id="cell_$procdff$37"><text x="30" y="-4" class="nodelabel cell_$procdff$37" s:attribute="ref">$adff-bus-bus</text><rect style="fill:#EDF5FF" width="60" height="65" rx="5" ry="5" s:generic="body" class="cell_$procdff$37"/><g transform="translate(0,15)" s:x="0" s:y="15" s:pid="in0" id="port_$procdff$37~ARST"><text x="-3" y="-4" class="inputPortLabel cell_$procdff$37">ARST</text></g><g transform="translate(0,35)" s:x="0" s:y="15" s:pid="in0" id="port_$procdff$37~CLK"><text x="-3" y="-4" class="inputPortLabel cell_$procdff$37">CLK</text></g><g transform="translate(0,55)" s:x="0" s:y="15" s:pid="in0" id="port_$procdff$37~D"><text x="-3" y="-4" class="inputPortLabel cell_$procdff$37">D</text></g><g transform="translate(60,15)" s:x="60" s:y="15" s:pid="out0" id="port_$procdff$37~Q"><text x="5" y="-4" style="fill:#000; stroke:none" class="cell_$procdff$37">Q</text></g></g><g s:type="generic" transform="translate(235,332.5)" s:width="60" s:height="45" id="cell_$procdff$38"><text x="30" y="-4" class="nodelabel cell_$procdff$38" s:attribute="ref">$adff-bus-bus</text><rect style="fill:#EDF5FF" width="60" height="65" rx="5" ry="5" s:generic="body" class="cell_$procdff$38"/><g transform="translate(0,15)" s:x="0" s:y="15" s:pid="in0" id="port_$procdff$38~ARST"><text x="-3" y="-4" class="inputPortLabel cell_$procdff$38">ARST</text></g><g transform="translate(0,35)" s:x="0" s:y="15" s:pid="in0" id="port_$procdff$38~CLK"><text x="-3" y="-4" class="inputPortLabel cell_$procdff$38">CLK</text></g><g transform="translate(0,55)" s:x="0" s:y="15" s:pid="in0" id="port_$procdff$38~D"><text x="-3" y="-4" class="inputPortLabel cell_$procdff$38">D</text></g><g transform="translate(60,15)" s:x="60" s:y="15" s:pid="out0" id="port_$procdff$38~Q"><text x="5" y="-4" style="fill:#000; stroke:none" class="cell_$procdff$38">Q</text></g></g><g s:type="generic" transform="translate(235,673)" s:width="60" s:height="45" id="cell_$procdff$39"><text x="30" y="-4" class="nodelabel cell_$procdff$39" s:attribute="ref">$adff-bus-bus</text><rect style="fill:#EDF5FF" width="60" height="65" rx="5" ry="5" s:generic="body" class="cell_$procdff$39"/><g transform="translate(0,15)" s:x="0" s:y="15" s:pid="in0" id="port_$procdff$39~ARST"><text x="-3" y="-4" class="inputPortLabel cell_$procdff$39">ARST</text></g><g transform="translate(0,35)" s:x="0" s:y="15" s:pid="in0" id="port_$procdff$39~CLK"><text x="-3" y="-4" class="inputPortLabel cell_$procdff$39">CLK</text></g><g transform="translate(0,55)" s:x="0" s:y="15" s:pid="in0" id="port_$procdff$39~D"><text x="-3" y="-4" class="inputPortLabel cell_$procdff$39">D</text></g><g transform="translate(60,15)" s:x="60" s:y="15" s:pid="out0" id="port_$procdff$39~Q"><text x="5" y="-4" style="fill:#000; stroke:none" class="cell_$procdff$39">Q</text></g></g><g s:type="generic" transform="translate(107,630.5)" s:width="60" s:height="45" id="cell_$procdff$40"><text x="30" y="-4" class="nodelabel cell_$procdff$40" s:attribute="ref">$adff-bus-bus</text><rect style="fill:#EDF5FF" width="60" height="65" rx="5" ry="5" s:generic="body" class="cell_$procdff$40"/><g transform="translate(0,15)" s:x="0" s:y="15" s:pid="in0" id="port_$procdff$40~ARST"><text x="-3" y="-4" class="inputPortLabel cell_$procdff$40">ARST</text></g><g transform="translate(0,35)" s:x="0" s:y="15" s:pid="in0" id="port_$procdff$40~CLK"><text x="-3" y="-4" class="inputPortLabel cell_$procdff$40">CLK</text></g><g transform="translate(0,55)" s:x="0" s:y="15" s:pid="in0" id="port_$procdff$40~D"><text x="-3" y="-4" class="inputPortLabel cell_$procdff$40">D</text></g><g transform="translate(60,15)" s:x="60" s:y="15" s:pid="out0" id="port_$procdff$40~Q"><text x="5" y="-4" style="fill:#000; stroke:none" class="cell_$procdff$40">Q</text></g></g><g s:type="generic" transform="translate(426,739.5)" s:width="60" s:height="45" id="cell_$procmux$10"><text x="30" y="-4" class="nodelabel cell_$procmux$10" s:attribute="ref">$mux-bus-bus</text><rect style="fill:#EDF5FF" width="60" height="65" rx="5" ry="5" s:generic="body" class="cell_$procmux$10"/><g transform="translate(0,15)" s:x="0" s:y="15" s:pid="in0" id="port_$procmux$10~A"><text x="-3" y="-4" class="inputPortLabel cell_$procmux$10">A</text></g><g transform="translate(0,35)" s:x="0" s:y="15" s:pid="in0" id="port_$procmux$10~B"><text x="-3" y="-4" class="inputPortLabel cell_$procmux$10">B</text></g><g transform="translate(0,55)" s:x="0" s:y="15" s:pid="in0" id="port_$procmux$10~S"><text x="-3" y="-4" class="inputPortLabel cell_$procmux$10">S</text></g><g transform="translate(60,15)" s:x="60" s:y="15" s:pid="out0" id="port_$procmux$10~Y"><text x="5" y="-4" style="fill:#000; stroke:none" class="cell_$procmux$10">Y</text></g></g><g s:type="eq" transform="translate(353.5,782.5)" s:width="30" s:height="30" id="cell_$procmux$11_CMP0"><s:alias val="$eq"/><s:alias val="$eqx"/><circle r="15" cx="12.5" cy="12.5" class="cell_$procmux$11_CMP0"/><line x1="7.5" x2="17.5" y1="10" y2="10" class="cell_$procmux$11_CMP0"/><line x1="7.5" x2="17.5" y1="15" y2="15" class="cell_$procmux$11_CMP0"/><g s:x="0" s:y="2.5" s:pid="A"/><g s:x="0" s:y="22.5" s:pid="B"/><g s:x="27.5" s:y="12.5" s:pid="Y"/></g><g s:type="generic" transform="translate(596,768.5)" s:width="60" s:height="45" id="cell_$procmux$13"><text x="30" y="-4" class="nodelabel cell_$procmux$13" s:attribute="ref">$mux-bus-bus</text><rect style="fill:#EDF5FF" width="60" height="65" rx="5" ry="5" s:generic="body" class="cell_$procmux$13"/><g transform="translate(0,15)" s:x="0" s:y="15" s:pid="in0" id="port_$procmux$13~A"><text x="-3" y="-4" class="inputPortLabel cell_$procmux$13">A</text></g><g transform="translate(0,35)" s:x="0" s:y="15" s:pid="in0" id="port_$procmux$13~B"><text x="-3" y="-4" class="inputPortLabel cell_$procmux$13">B</text></g><g transform="translate(0,55)" s:x="0" s:y="15" s:pid="in0" id="port_$procmux$13~S"><text x="-3" y="-4" class="inputPortLabel cell_$procmux$13">S</text></g><g transform="translate(60,15)" s:x="60" s:y="15" s:pid="out0" id="port_$procmux$13~Y"><text x="5" y="-4" style="fill:#000; stroke:none" class="cell_$procmux$13">Y</text></g></g><g s:type="generic" transform="translate(426,496.5)" s:width="60" s:height="45" id="cell_$procmux$16"><text x="30" y="-4" class="nodelabel cell_$procmux$16" s:attribute="ref">$mux-bus-bus</text><rect style="fill:#EDF5FF" width="60" height="65" rx="5" ry="5" s:generic="body" class="cell_$procmux$16"/><g transform="translate(0,15)" s:x="0" s:y="15" s:pid="in0" id="port_$procmux$16~A"><text x="-3" y="-4" class="inputPortLabel cell_$procmux$16">A</text></g><g transform="translate(0,35)" s:x="0" s:y="15" s:pid="in0" id="port_$procmux$16~B"><text x="-3" y="-4" class="inputPortLabel cell_$procmux$16">B</text></g><g transform="translate(0,55)" s:x="0" s:y="15" s:pid="in0" id="port_$procmux$16~S"><text x="-3" y="-4" class="inputPortLabel cell_$procmux$16">S</text></g><g transform="translate(60,15)" s:x="60" s:y="15" s:pid="out0" id="port_$procmux$16~Y"><text x="5" y="-4" style="fill:#000; stroke:none" class="cell_$procmux$16">Y</text></g></g><g s:type="eq" transform="translate(353.5,539.5)" s:width="30" s:height="30" id="cell_$procmux$17_CMP0"><s:alias val="$eq"/><s:alias val="$eqx"/><circle r="15" cx="12.5" cy="12.5" class="cell_$procmux$17_CMP0"/><line x1="7.5" x2="17.5" y1="10" y2="10" class="cell_$procmux$17_CMP0"/><line x1="7.5" x2="17.5" y1="15" y2="15" class="cell_$procmux$17_CMP0"/><g s:x="0" s:y="2.5" s:pid="A"/><g s:x="0" s:y="22.5" s:pid="B"/><g s:x="27.5" s:y="12.5" s:pid="Y"/></g><g s:type="generic" transform="translate(596,482.5)" s:width="60" s:height="45" id="cell_$procmux$19"><text x="30" y="-4" class="nodelabel cell_$procmux$19" s:attribute="ref">$mux-bus-bus</text><rect style="fill:#EDF5FF" width="60" height="65" rx="5" ry="5" s:generic="body" class="cell_$procmux$19"/><g transform="translate(0,15)" s:x="0" s:y="15" s:pid="in0" id="port_$procmux$19~A"><text x="-3" y="-4" class="inputPortLabel cell_$procmux$19">A</text></g><g transform="translate(0,35)" s:x="0" s:y="15" s:pid="in0" id="port_$procmux$19~B"><text x="-3" y="-4" class="inputPortLabel cell_$procmux$19">B</text></g><g transform="translate(0,55)" s:x="0" s:y="15" s:pid="in0" id="port_$procmux$19~S"><text x="-3" y="-4" class="inputPortLabel cell_$procmux$19">S</text></g><g transform="translate(60,15)" s:x="60" s:y="15" s:pid="out0" id="port_$procmux$19~Y"><text x="5" y="-4" style="fill:#000; stroke:none" class="cell_$procmux$19">Y</text></g></g><g s:type="generic" transform="translate(426,226)" s:width="60" s:height="45" id="cell_$procmux$23"><text x="30" y="-4" class="nodelabel cell_$procmux$23" s:attribute="ref">$mux-bus-bus</text><rect style="fill:#EDF5FF" width="60" height="65" rx="5" ry="5" s:generic="body" class="cell_$procmux$23"/><g transform="translate(0,15)" s:x="0" s:y="15" s:pid="in0" id="port_$procmux$23~A"><text x="-3" y="-4" class="inputPortLabel cell_$procmux$23">A</text></g><g transform="translate(0,35)" s:x="0" s:y="15" s:pid="in0" id="port_$procmux$23~B"><text x="-3" y="-4" class="inputPortLabel cell_$procmux$23">B</text></g><g transform="translate(0,55)" s:x="0" s:y="15" s:pid="in0" id="port_$procmux$23~S"><text x="-3" y="-4" class="inputPortLabel cell_$procmux$23">S</text></g><g transform="translate(60,15)" s:x="60" s:y="15" s:pid="out0" id="port_$procmux$23~Y"><text x="5" y="-4" style="fill:#000; stroke:none" class="cell_$procmux$23">Y</text></g></g><g s:type="eq" transform="translate(353.5,269)" s:width="30" s:height="30" id="cell_$procmux$24_CMP0"><s:alias val="$eq"/><s:alias val="$eqx"/><circle r="15" cx="12.5" cy="12.5" class="cell_$procmux$24_CMP0"/><line x1="7.5" x2="17.5" y1="10" y2="10" class="cell_$procmux$24_CMP0"/><line x1="7.5" x2="17.5" y1="15" y2="15" class="cell_$procmux$24_CMP0"/><g s:x="0" s:y="2.5" s:pid="A"/><g s:x="0" s:y="22.5" s:pid="B"/><g s:x="27.5" s:y="12.5" s:pid="Y"/></g><g s:type="generic" transform="translate(596,265.5)" s:width="60" s:height="45" id="cell_$procmux$26"><text x="30" y="-4" class="nodelabel cell_$procmux$26" s:attribute="ref">$mux-bus-bus</text><rect style="fill:#EDF5FF" width="60" height="65" rx="5" ry="5" s:generic="body" class="cell_$procmux$26"/><g transform="translate(0,15)" s:x="0" s:y="15" s:pid="in0" id="port_$procmux$26~A"><text x="-3" y="-4" class="inputPortLabel cell_$procmux$26">A</text></g><g transform="translate(0,35)" s:x="0" s:y="15" s:pid="in0" id="port_$procmux$26~B"><text x="-3" y="-4" class="inputPortLabel cell_$procmux$26">B</text></g><g transform="translate(0,55)" s:x="0" s:y="15" s:pid="in0" id="port_$procmux$26~S"><text x="-3" y="-4" class="inputPortLabel cell_$procmux$26">S</text></g><g transform="translate(60,15)" s:x="60" s:y="15" s:pid="out0" id="port_$procmux$26~Y"><text x="5" y="-4" style="fill:#000; stroke:none" class="cell_$procmux$26">Y</text></g></g><g s:type="generic" transform="translate(426,1232)" s:width="60" s:height="45" id="cell_$procmux$31"><text x="30" y="-4" class="nodelabel cell_$procmux$31" s:attribute="ref">$mux-bus-bus</text><rect style="fill:#EDF5FF" width="60" height="65" rx="5" ry="5" s:generic="body" class="cell_$procmux$31"/><g transform="translate(0,15)" s:x="0" s:y="15" s:pid="in0" id="port_$procmux$31~A"><text x="-3" y="-4" class="inputPortLabel cell_$procmux$31">A</text></g><g transform="translate(0,35)" s:x="0" s:y="15" s:pid="in0" id="port_$procmux$31~B"><text x="-3" y="-4" class="inputPortLabel cell_$procmux$31">B</text></g><g transform="translate(0,55)" s:x="0" s:y="15" s:pid="in0" id="port_$procmux$31~S"><text x="-3" y="-4" class="inputPortLabel cell_$procmux$31">S</text></g><g transform="translate(60,15)" s:x="60" s:y="15" s:pid="out0" id="port_$procmux$31~Y"><text x="5" y="-4" style="fill:#000; stroke:none" class="cell_$procmux$31">Y</text></g></g><g s:type="not" transform="translate(354,1277.5)" s:width="30" s:height="20" id="cell_$procmux$32_CMP0"><s:alias val="$_NOT_"/><s:alias val="$not"/><s:alias val="$logic_not"/><path style="fill:#FFE680" d="M0,0 L0,20 L20,10 Z" class="cell_$procmux$32_CMP0"/><circle cx="24" cy="10" r="3" class="cell_$procmux$32_CMP0"/><g s:x="-1" s:y="10" s:pid="A"/><g s:x="27" s:y="10" s:pid="Y"/></g><g s:type="generic" transform="translate(596,1212)" s:width="60" s:height="45" id="cell_$procmux$34"><text x="30" y="-4" class="nodelabel cell_$procmux$34" s:attribute="ref">$mux-bus-bus</text><rect style="fill:#EDF5FF" width="60" height="65" rx="5" ry="5" s:generic="body" class="cell_$procmux$34"/><g transform="translate(0,15)" s:x="0" s:y="15" s:pid="in0" id="port_$procmux$34~A"><text x="-3" y="-4" class="inputPortLabel cell_$procmux$34">A</text></g><g transform="translate(0,35)" s:x="0" s:y="15" s:pid="in0" id="port_$procmux$34~B"><text x="-3" y="-4" class="inputPortLabel cell_$procmux$34">B</text></g><g transform="translate(0,55)" s:x="0" s:y="15" s:pid="in0" id="port_$procmux$34~S"><text x="-3" y="-4" class="inputPortLabel cell_$procmux$34">S</text></g><g transform="translate(60,15)" s:x="60" s:y="15" s:pid="out0" id="port_$procmux$34~Y"><text x="5" y="-4" style="fill:#000; stroke:none" class="cell_$procmux$34">Y</text></g></g><g s:type="mux" transform="translate(534,1100)" s:width="20" s:height="40" id="cell_$procmux$5"><s:alias val="$pmux"/><s:alias val="$mux"/><s:alias val="$_MUX_"/><path style="fill:#eeaaff" d="M0,0 L20,10 L20,30 L0,40 Z" class="cell_$procmux$5"/><text x="5" y="13" class="nodelabel cell_$procmux$5" s:attribute="">0</text><text x="5" y="32" class="nodelabel cell_$procmux$5" s:attribute="">1</text><g s:x="0" s:y="10" s:pid="A"/><g s:x="0" s:y="30" s:pid="B"/><g s:x="10" s:y="35" s:pid="S"/><g s:x="20" s:y="20" s:pid="Y"/></g><g s:type="mux" transform="translate(534,1040)" s:width="20" s:height="40" id="cell_$procmux$8"><s:alias val="$pmux"/><s:alias val="$mux"/><s:alias val="$_MUX_"/><path style="fill:#eeaaff" d="M0,0 L20,10 L20,30 L0,40 Z" class="cell_$procmux$8"/><text x="5" y="13" class="nodelabel cell_$procmux$8" s:attribute="">0</text><text x="5" y="32" class="nodelabel cell_$procmux$8" s:attribute="">1</text><g s:x="0" s:y="10" s:pid="A"/><g s:x="0" s:y="30" s:pid="B"/><g s:x="10" s:y="35" s:pid="S"/><g s:x="20" s:y="20" s:pid="Y"/></g><g s:type="inputExt" transform="translate(12,658)" s:width="30" s:height="20" id="cell_clk"><text x="15" y="-4" class="nodelabel cell_clk" s:attribute="ref">clk</text><s:alias val="$_inputExt_"/><path style="fill:#FDF766" d="M0,0 L0,16 L15,16 L24,8 L15,0 Z" class="cell_clk"/><g s:x="24" s:y="8" s:pid="Y"/></g><g s:type="inputExt" transform="translate(12,593)" s:width="30" s:height="20" id="cell_rst_n"><text x="15" y="-4" class="nodelabel cell_rst_n" s:attribute="ref">rst_n</text><s:alias val="$_inputExt_"/><path style="fill:#FDF766" d="M0,0 L0,16 L15,16 L24,8 L15,0 Z" class="cell_rst_n"/><g s:x="24" s:y="8" s:pid="Y"/></g><g s:type="inputExt" transform="translate(456,962.5)" s:width="30" s:height="20" id="cell_LDPI"><text x="15" y="-4" class="nodelabel cell_LDPI" s:attribute="ref">LDPI</text><s:alias val="$_inputExt_"/><path style="fill:#FDF766" d="M0,0 L0,16 L15,16 L24,8 L15,0 Z" class="cell_LDPI"/><g s:x="24" s:y="8" s:pid="Y"/></g><g s:type="inputExt" transform="translate(456,1122)" s:width="30" s:height="20" id="cell_I9"><text x="15" y="-4" class="nodelabel cell_I9" s:attribute="ref">I9</text><s:alias val="$_inputExt_"/><path style="fill:#FDF766" d="M0,0 L0,16 L15,16 L24,8 L15,0 Z" class="cell_I9"/><g s:x="24" s:y="8" s:pid="Y"/></g><g s:type="inputExt" transform="translate(456,897.5)" s:width="30" s:height="20" id="cell_I8"><text x="15" y="-4" class="nodelabel cell_I8" s:attribute="ref">I8</text><s:alias val="$_inputExt_"/><path style="fill:#FDF766" d="M0,0 L0,16 L15,16 L24,8 L15,0 Z" class="cell_I8"/><g s:x="24" s:y="8" s:pid="Y"/></g><g s:type="inputExt" transform="translate(243,490.5)" s:width="30" s:height="20" id="cell_write_data"><text x="15" y="-4" class="nodelabel cell_write_data" s:attribute="ref">write_data</text><s:alias val="$_inputExt_"/><path style="fill:#FDF766" d="M0,0 L0,16 L15,16 L24,8 L15,0 Z" class="cell_write_data"/><g s:x="24" s:y="8" s:pid="Y"/></g><g s:type="outputExt" transform="translate(596,1365)" s:width="30" s:height="20" id="cell_out_R0"><text x="15" y="-4" class="nodelabel cell_out_R0" s:attribute="ref">out_R0</text><s:alias val="$_outputExt_"/><path style="fill:#66FDD9" d="M24,0 L24,16 L10,16 L0,8 L10,0 Z" class="cell_out_R0"/><g s:x="0" s:y="8" s:pid="A"/></g><g s:type="outputExt" transform="translate(596,77)" s:width="30" s:height="20" id="cell_out_R1"><text x="15" y="-4" class="nodelabel cell_out_R1" s:attribute="ref">out_R1</text><s:alias val="$_outputExt_"/><path style="fill:#66FDD9" d="M24,0 L24,16 L10,16 L0,8 L10,0 Z" class="cell_out_R1"/><g s:x="0" s:y="8" s:pid="A"/></g><g s:type="outputExt" transform="translate(596,595.5)" s:width="30" s:height="20" id="cell_out_R2"><text x="15" y="-4" class="nodelabel cell_out_R2" s:attribute="ref">out_R2</text><s:alias val="$_outputExt_"/><path style="fill:#66FDD9" d="M24,0 L24,16 L10,16 L0,8 L10,0 Z" class="cell_out_R2"/><g s:x="0" s:y="8" s:pid="A"/></g><g s:type="outputExt" transform="translate(596,660.5)" s:width="30" s:height="20" id="cell_out_R3"><text x="15" y="-4" class="nodelabel cell_out_R3" s:attribute="ref">out_R3</text><s:alias val="$_outputExt_"/><path style="fill:#66FDD9" d="M24,0 L24,16 L10,16 L0,8 L10,0 Z" class="cell_out_R3"/><g s:x="0" s:y="8" s:pid="A"/></g><g s:type="join" transform="translate(596,1089.5)" s:width="4" s:height="40" id="cell_$join$,81,82,"><rect width="5" height="40" class="splitjoinBody" s:generic="body"/><s:alias val="$_join_"/><g s:x="5" s:y="20" s:pid="out"/><g transform="translate(0,10)" s:x="0" s:y="10" s:pid="in0"><text x="-3" y="-4" class="inputPortLabel">0</text></g><g transform="translate(0,30)" s:x="0" s:y="10" s:pid="in0"><text x="-3" y="-4" class="inputPortLabel">1</text></g></g><g s:type="split" transform="translate(463,1019.5)" s:width="5" s:height="40" id="cell_$split$,83,84,"><rect width="5" height="40" class="splitjoinBody" s:generic="body"/><s:alias val="$_split_"/><g s:x="0" s:y="20" s:pid="in"/><g transform="translate(4,10)" s:x="4" s:y="10" s:pid="out0"><text x="5" y="-4">1</text></g><g transform="translate(4,30)" s:x="4" s:y="10" s:pid="out0"><text x="5" y="-4">0</text></g></g><line x1="36" x2="72" y1="601" y2="601" class="net_3 width_1" style="stroke-width: 1"/><line x1="72" x2="72" y1="601" y2="22" class="net_3 width_1" style="stroke-width: 1"/><circle cx="72" cy="601" r="2" style="fill:#000" class="net_3 width_1"/><line x1="72" x2="595" y1="22" y2="22" class="net_3 width_1" style="stroke-width: 1"/><line x1="36" x2="72" y1="601" y2="601" class="net_3 width_1" style="stroke-width: 1"/><line x1="72" x2="72" y1="601" y2="1216.5" class="net_3 width_1" style="stroke-width: 1"/><line x1="72" x2="235" y1="1216.5" y2="1216.5" class="net_3 width_1" style="stroke-width: 1"/><line x1="36" x2="72" y1="601" y2="601" class="net_3 width_1" style="stroke-width: 1"/><line x1="72" x2="72" y1="601" y2="22" class="net_3 width_1" style="stroke-width: 1"/><line x1="72" x2="185" y1="22" y2="22" class="net_3 width_1" style="stroke-width: 1"/><line x1="185" x2="185" y1="22" y2="58.5" class="net_3 width_1" style="stroke-width: 1"/><circle cx="185" cy="22" r="2" style="fill:#000" class="net_3 width_1"/><line x1="185" x2="235" y1="58.5" y2="58.5" class="net_3 width_1" style="stroke-width: 1"/><line x1="36" x2="72" y1="601" y2="601" class="net_3 width_1" style="stroke-width: 1"/><line x1="72" x2="72" y1="601" y2="348" class="net_3 width_1" style="stroke-width: 1"/><circle cx="72" cy="348" r="2" style="fill:#000" class="net_3 width_1"/><line x1="72" x2="235" y1="348" y2="348" class="net_3 width_1" style="stroke-width: 1"/><line x1="36" x2="195" y1="601" y2="601" class="net_3 width_1" style="stroke-width: 1"/><line x1="195" x2="195" y1="601" y2="688.5" class="net_3 width_1" style="stroke-width: 1"/><line x1="195" x2="235" y1="688.5" y2="688.5" class="net_3 width_1" style="stroke-width: 1"/><line x1="36" x2="72" y1="601" y2="601" class="net_3 width_1" style="stroke-width: 1"/><line x1="72" x2="72" y1="601" y2="646" class="net_3 width_1" style="stroke-width: 1"/><circle cx="72" cy="646" r="2" style="fill:#000" class="net_3 width_1"/><line x1="72" x2="107" y1="646" y2="646" class="net_3 width_1" style="stroke-width: 1"/><line x1="480" x2="514" y1="970.5" y2="970.5" class="net_4 width_1" style="stroke-width: 1"/><line x1="514" x2="514" y1="970.5" y2="1325" class="net_4 width_1" style="stroke-width: 1"/><circle cx="514" cy="970.5" r="2" style="fill:#000" class="net_4 width_1"/><line x1="514" x2="595" y1="1325" y2="1325" class="net_4 width_1" style="stroke-width: 1"/><line x1="480" x2="514" y1="970.5" y2="970.5" class="net_4 width_1" style="stroke-width: 1"/><line x1="514" x2="514" y1="970.5" y2="824" class="net_4 width_1" style="stroke-width: 1"/><circle cx="514" cy="824" r="2" style="fill:#000" class="net_4 width_1"/><line x1="514" x2="596" y1="824" y2="824" class="net_4 width_1" style="stroke-width: 1"/><line x1="480" x2="514" y1="970.5" y2="970.5" class="net_4 width_1" style="stroke-width: 1"/><line x1="514" x2="514" y1="970.5" y2="538" class="net_4 width_1" style="stroke-width: 1"/><circle cx="514" cy="538" r="2" style="fill:#000" class="net_4 width_1"/><line x1="514" x2="596" y1="538" y2="538" class="net_4 width_1" style="stroke-width: 1"/><line x1="480" x2="514" y1="970.5" y2="970.5" class="net_4 width_1" style="stroke-width: 1"/><line x1="514" x2="514" y1="970.5" y2="321" class="net_4 width_1" style="stroke-width: 1"/><line x1="514" x2="596" y1="321" y2="321" class="net_4 width_1" style="stroke-width: 1"/><line x1="480" x2="514" y1="970.5" y2="970.5" class="net_4 width_1" style="stroke-width: 1"/><line x1="514" x2="514" y1="970.5" y2="1325" class="net_4 width_1" style="stroke-width: 1"/><line x1="514" x2="564" y1="1325" y2="1325" class="net_4 width_1" style="stroke-width: 1"/><line x1="564" x2="564" y1="1325" y2="1267.5" class="net_4 width_1" style="stroke-width: 1"/><circle cx="564" cy="1325" r="2" style="fill:#000" class="net_4 width_1"/><line x1="564" x2="596" y1="1267.5" y2="1267.5" class="net_4 width_1" style="stroke-width: 1"/><line x1="480" x2="514" y1="970.5" y2="970.5" class="net_4 width_1" style="stroke-width: 1"/><line x1="514" x2="514" y1="970.5" y2="1258.5" class="net_4 width_1" style="stroke-width: 1"/><line x1="514" x2="544" y1="1258.5" y2="1258.5" class="net_4 width_1" style="stroke-width: 1"/><circle cx="514" cy="1258.5" r="2" style="fill:#000" class="net_4 width_1"/><line x1="544" x2="544" y1="1258.5" y2="1135" class="net_4 width_1" style="stroke-width: 1"/><line x1="480" x2="514" y1="970.5" y2="970.5" class="net_4 width_1" style="stroke-width: 1"/><line x1="514" x2="514" y1="970.5" y2="1090" class="net_4 width_1" style="stroke-width: 1"/><line x1="514" x2="544" y1="1090" y2="1090" class="net_4 width_1" style="stroke-width: 1"/><circle cx="514" cy="1090" r="2" style="fill:#000" class="net_4 width_1"/><line x1="544" x2="544" y1="1090" y2="1075" class="net_4 width_1" style="stroke-width: 1"/><line x1="36" x2="52" y1="666" y2="666" class="net_2 width_1" style="stroke-width: 1"/><line x1="52" x2="52" y1="666" y2="1236.5" class="net_2 width_1" style="stroke-width: 1"/><circle cx="52" cy="666" r="2" style="fill:#000" class="net_2 width_1"/><line x1="52" x2="235" y1="1236.5" y2="1236.5" class="net_2 width_1" style="stroke-width: 1"/><line x1="36" x2="52" y1="666" y2="666" class="net_2 width_1" style="stroke-width: 1"/><line x1="52" x2="52" y1="666" y2="78.5" class="net_2 width_1" style="stroke-width: 1"/><line x1="52" x2="235" y1="78.5" y2="78.5" class="net_2 width_1" style="stroke-width: 1"/><line x1="36" x2="52" y1="666" y2="666" class="net_2 width_1" style="stroke-width: 1"/><line x1="52" x2="52" y1="666" y2="368" class="net_2 width_1" style="stroke-width: 1"/><circle cx="52" cy="368" r="2" style="fill:#000" class="net_2 width_1"/><line x1="52" x2="235" y1="368" y2="368" class="net_2 width_1" style="stroke-width: 1"/><line x1="36" x2="52" y1="666" y2="666" class="net_2 width_1" style="stroke-width: 1"/><line x1="52" x2="52" y1="666" y2="708.5" class="net_2 width_1" style="stroke-width: 1"/><circle cx="52" cy="708.5" r="2" style="fill:#000" class="net_2 width_1"/><line x1="52" x2="235" y1="708.5" y2="708.5" class="net_2 width_1" style="stroke-width: 1"/><line x1="36" x2="107" y1="666" y2="666" class="net_2 width_1" style="stroke-width: 1"/><line x1="657" x2="674" y1="1227.5" y2="1227.5" class="net_49,50,51,52,53,54,55,56 width_8" style="stroke-width: 2"/><line x1="674" x2="674" y1="1227.5" y2="1345" class="net_49,50,51,52,53,54,55,56 width_8" style="stroke-width: 2"/><line x1="674" x2="195" y1="1345" y2="1345" class="net_49,50,51,52,53,54,55,56 width_8" style="stroke-width: 2"/><line x1="195" x2="195" y1="1345" y2="1256.5" class="net_49,50,51,52,53,54,55,56 width_8" style="stroke-width: 2"/><line x1="195" x2="235" y1="1256.5" y2="1256.5" class="net_49,50,51,52,53,54,55,56 width_8" style="stroke-width: 2"/><line x1="657" x2="704" y1="281" y2="281" class="net_57,58,59,60,61,62,63,64 width_8" style="stroke-width: 2"/><line x1="704" x2="704" y1="281" y2="121" class="net_57,58,59,60,61,62,63,64 width_8" style="stroke-width: 2"/><line x1="704" x2="195" y1="121" y2="121" class="net_57,58,59,60,61,62,63,64 width_8" style="stroke-width: 2"/><line x1="195" x2="195" y1="121" y2="98.5" class="net_57,58,59,60,61,62,63,64 width_8" style="stroke-width: 2"/><line x1="195" x2="235" y1="98.5" y2="98.5" class="net_57,58,59,60,61,62,63,64 width_8" style="stroke-width: 2"/><line x1="657" x2="694" y1="498" y2="498" class="net_65,66,67,68,69,70,71,72 width_8" style="stroke-width: 2"/><line x1="694" x2="694" y1="498" y2="141" class="net_65,66,67,68,69,70,71,72 width_8" style="stroke-width: 2"/><line x1="694" x2="195" y1="141" y2="141" class="net_65,66,67,68,69,70,71,72 width_8" style="stroke-width: 2"/><line x1="195" x2="195" y1="141" y2="388" class="net_65,66,67,68,69,70,71,72 width_8" style="stroke-width: 2"/><line x1="195" x2="235" y1="388" y2="388" class="net_65,66,67,68,69,70,71,72 width_8" style="stroke-width: 2"/><line x1="657" x2="674" y1="784" y2="784" class="net_73,74,75,76,77,78,79,80 width_8" style="stroke-width: 2"/><line x1="674" x2="674" y1="784" y2="846.5" class="net_73,74,75,76,77,78,79,80 width_8" style="stroke-width: 2"/><line x1="674" x2="195" y1="846.5" y2="846.5" class="net_73,74,75,76,77,78,79,80 width_8" style="stroke-width: 2"/><line x1="195" x2="195" y1="846.5" y2="728.5" class="net_73,74,75,76,77,78,79,80 width_8" style="stroke-width: 2"/><line x1="195" x2="235" y1="728.5" y2="728.5" class="net_73,74,75,76,77,78,79,80 width_8" style="stroke-width: 2"/><line x1="602" x2="684" y1="1110" y2="1110" class="net_81,82 width_2" style="stroke-width: 2"/><line x1="684" x2="684" y1="1110" y2="158" class="net_81,82 width_2" style="stroke-width: 2"/><line x1="684" x2="62" y1="158" y2="158" class="net_81,82 width_2" style="stroke-width: 2"/><line x1="62" x2="62" y1="158" y2="686" class="net_81,82 width_2" style="stroke-width: 2"/><line x1="62" x2="107" y1="686" y2="686" class="net_81,82 width_2" style="stroke-width: 2"/><line x1="296" x2="333" y1="688.5" y2="688.5" class="net_39,40,41,42,43,44,45,46 width_8" style="stroke-width: 2"/><line x1="333" x2="333" y1="688.5" y2="721.5" class="net_39,40,41,42,43,44,45,46 width_8" style="stroke-width: 2"/><line x1="333" x2="404" y1="721.5" y2="721.5" class="net_39,40,41,42,43,44,45,46 width_8" style="stroke-width: 2"/><line x1="404" x2="404" y1="721.5" y2="755" class="net_39,40,41,42,43,44,45,46 width_8" style="stroke-width: 2"/><circle cx="333" cy="688.5" r="3" style="fill:#000" class="net_39,40,41,42,43,44,45,46 width_8"/><line x1="404" x2="426" y1="755" y2="755" class="net_39,40,41,42,43,44,45,46 width_8" style="stroke-width: 2"/><line x1="296" x2="574" y1="688.5" y2="688.5" class="net_39,40,41,42,43,44,45,46 width_8" style="stroke-width: 2"/><line x1="574" x2="574" y1="688.5" y2="784" class="net_39,40,41,42,43,44,45,46 width_8" style="stroke-width: 2"/><line x1="574" x2="596" y1="784" y2="784" class="net_39,40,41,42,43,44,45,46 width_8" style="stroke-width: 2"/><line x1="296" x2="394" y1="688.5" y2="688.5" class="net_39,40,41,42,43,44,45,46 width_8" style="stroke-width: 2"/><line x1="394" x2="394" y1="688.5" y2="668.5" class="net_39,40,41,42,43,44,45,46 width_8" style="stroke-width: 2"/><circle cx="394" cy="688.5" r="3" style="fill:#000" class="net_39,40,41,42,43,44,45,46 width_8"/><line x1="394" x2="596" y1="668.5" y2="668.5" class="net_39,40,41,42,43,44,45,46 width_8" style="stroke-width: 2"/><line x1="267" x2="323" y1="498.5" y2="498.5" class="net_7,8,9,10,11,12,13,14 width_8" style="stroke-width: 2"/><line x1="323" x2="323" y1="498.5" y2="741.5" class="net_7,8,9,10,11,12,13,14 width_8" style="stroke-width: 2"/><line x1="323" x2="394" y1="741.5" y2="741.5" class="net_7,8,9,10,11,12,13,14 width_8" style="stroke-width: 2"/><line x1="394" x2="394" y1="741.5" y2="775" class="net_7,8,9,10,11,12,13,14 width_8" style="stroke-width: 2"/><circle cx="323" cy="498.5" r="3" style="fill:#000" class="net_7,8,9,10,11,12,13,14 width_8"/><circle cx="323" cy="741.5" r="3" style="fill:#000" class="net_7,8,9,10,11,12,13,14 width_8"/><line x1="394" x2="426" y1="775" y2="775" class="net_7,8,9,10,11,12,13,14 width_8" style="stroke-width: 2"/><line x1="267" x2="394" y1="498.5" y2="498.5" class="net_7,8,9,10,11,12,13,14 width_8" style="stroke-width: 2"/><line x1="394" x2="394" y1="498.5" y2="532" class="net_7,8,9,10,11,12,13,14 width_8" style="stroke-width: 2"/><line x1="394" x2="426" y1="532" y2="532" class="net_7,8,9,10,11,12,13,14 width_8" style="stroke-width: 2"/><line x1="267" x2="323" y1="498.5" y2="498.5" class="net_7,8,9,10,11,12,13,14 width_8" style="stroke-width: 2"/><line x1="323" x2="323" y1="498.5" y2="228" class="net_7,8,9,10,11,12,13,14 width_8" style="stroke-width: 2"/><line x1="323" x2="394" y1="228" y2="228" class="net_7,8,9,10,11,12,13,14 width_8" style="stroke-width: 2"/><line x1="394" x2="394" y1="228" y2="261.5" class="net_7,8,9,10,11,12,13,14 width_8" style="stroke-width: 2"/><line x1="394" x2="426" y1="261.5" y2="261.5" class="net_7,8,9,10,11,12,13,14 width_8" style="stroke-width: 2"/><line x1="267" x2="323" y1="498.5" y2="498.5" class="net_7,8,9,10,11,12,13,14 width_8" style="stroke-width: 2"/><line x1="323" x2="323" y1="498.5" y2="1236.5" class="net_7,8,9,10,11,12,13,14 width_8" style="stroke-width: 2"/><line x1="323" x2="394" y1="1236.5" y2="1236.5" class="net_7,8,9,10,11,12,13,14 width_8" style="stroke-width: 2"/><line x1="394" x2="394" y1="1236.5" y2="1267.5" class="net_7,8,9,10,11,12,13,14 width_8" style="stroke-width: 2"/><line x1="394" x2="426" y1="1267.5" y2="1267.5" class="net_7,8,9,10,11,12,13,14 width_8" style="stroke-width: 2"/><line x1="381" x2="426" y1="795" y2="795" class="net_85 width_1" style="stroke-width: 1"/><line x1="168" x2="185" y1="646" y2="646" class="net_83,84 width_2" style="stroke-width: 2"/><line x1="185" x2="185" y1="646" y2="785" class="net_83,84 width_2" style="stroke-width: 2"/><circle cx="185" cy="646" r="3" style="fill:#000" class="net_83,84 width_2"/><circle cx="185" cy="785" r="3" style="fill:#000" class="net_83,84 width_2"/><line x1="185" x2="353.5" y1="785" y2="785" class="net_83,84 width_2" style="stroke-width: 2"/><line x1="168" x2="185" y1="646" y2="646" class="net_83,84 width_2" style="stroke-width: 2"/><line x1="185" x2="185" y1="646" y2="439.5" class="net_83,84 width_2" style="stroke-width: 2"/><line x1="185" x2="333" y1="439.5" y2="439.5" class="net_83,84 width_2" style="stroke-width: 2"/><line x1="333" x2="333" y1="439.5" y2="542" class="net_83,84 width_2" style="stroke-width: 2"/><circle cx="185" cy="439.5" r="3" style="fill:#000" class="net_83,84 width_2"/><line x1="333" x2="353.5" y1="542" y2="542" class="net_83,84 width_2" style="stroke-width: 2"/><line x1="168" x2="185" y1="646" y2="646" class="net_83,84 width_2" style="stroke-width: 2"/><line x1="185" x2="185" y1="646" y2="271.5" class="net_83,84 width_2" style="stroke-width: 2"/><line x1="185" x2="353.5" y1="271.5" y2="271.5" class="net_83,84 width_2" style="stroke-width: 2"/><line x1="168" x2="185" y1="646" y2="646" class="net_83,84 width_2" style="stroke-width: 2"/><line x1="185" x2="185" y1="646" y2="1150" class="net_83,84 width_2" style="stroke-width: 2"/><line x1="185" x2="313" y1="1150" y2="1150" class="net_83,84 width_2" style="stroke-width: 2"/><line x1="313" x2="313" y1="1150" y2="1287.5" class="net_83,84 width_2" style="stroke-width: 2"/><line x1="313" x2="353" y1="1287.5" y2="1287.5" class="net_83,84 width_2" style="stroke-width: 2"/><line x1="168" x2="185" y1="646" y2="646" class="net_83,84 width_2" style="stroke-width: 2"/><line x1="185" x2="185" y1="646" y2="1040" class="net_83,84 width_2" style="stroke-width: 2"/><circle cx="185" cy="1040" r="3" style="fill:#000" class="net_83,84 width_2"/><line x1="185" x2="463" y1="1040" y2="1040" class="net_83,84 width_2" style="stroke-width: 2"/><line x1="487" x2="564" y1="755" y2="755" class="net_86,87,88,89,90,91,92,93 width_8" style="stroke-width: 2"/><line x1="564" x2="564" y1="755" y2="804" class="net_86,87,88,89,90,91,92,93 width_8" style="stroke-width: 2"/><line x1="564" x2="596" y1="804" y2="804" class="net_86,87,88,89,90,91,92,93 width_8" style="stroke-width: 2"/><line x1="296" x2="404" y1="348" y2="348" class="net_31,32,33,34,35,36,37,38 width_8" style="stroke-width: 2"/><line x1="404" x2="404" y1="348" y2="512" class="net_31,32,33,34,35,36,37,38 width_8" style="stroke-width: 2"/><line x1="404" x2="426" y1="512" y2="512" class="net_31,32,33,34,35,36,37,38 width_8" style="stroke-width: 2"/><line x1="296" x2="343" y1="348" y2="348" class="net_31,32,33,34,35,36,37,38 width_8" style="stroke-width: 2"/><line x1="343" x2="343" y1="348" y2="333" class="net_31,32,33,34,35,36,37,38 width_8" style="stroke-width: 2"/><line x1="343" x2="564" y1="333" y2="333" class="net_31,32,33,34,35,36,37,38 width_8" style="stroke-width: 2"/><line x1="564" x2="564" y1="333" y2="498" class="net_31,32,33,34,35,36,37,38 width_8" style="stroke-width: 2"/><circle cx="343" cy="348" r="3" style="fill:#000" class="net_31,32,33,34,35,36,37,38 width_8"/><line x1="564" x2="596" y1="498" y2="498" class="net_31,32,33,34,35,36,37,38 width_8" style="stroke-width: 2"/><line x1="296" x2="343" y1="348" y2="348" class="net_31,32,33,34,35,36,37,38 width_8" style="stroke-width: 2"/><line x1="343" x2="343" y1="348" y2="603.5" class="net_31,32,33,34,35,36,37,38 width_8" style="stroke-width: 2"/><line x1="343" x2="596" y1="603.5" y2="603.5" class="net_31,32,33,34,35,36,37,38 width_8" style="stroke-width: 2"/><line x1="381" x2="426" y1="552" y2="552" class="net_94 width_1" style="stroke-width: 1"/><line x1="487" x2="564" y1="512" y2="512" class="net_95,96,97,98,99,100,101,102 width_8" style="stroke-width: 2"/><line x1="564" x2="564" y1="512" y2="518" class="net_95,96,97,98,99,100,101,102 width_8" style="stroke-width: 2"/><line x1="564" x2="596" y1="518" y2="518" class="net_95,96,97,98,99,100,101,102 width_8" style="stroke-width: 2"/><line x1="296" x2="313" y1="58.5" y2="58.5" class="net_23,24,25,26,27,28,29,30 width_8" style="stroke-width: 2"/><line x1="313" x2="313" y1="58.5" y2="208" class="net_23,24,25,26,27,28,29,30 width_8" style="stroke-width: 2"/><line x1="313" x2="404" y1="208" y2="208" class="net_23,24,25,26,27,28,29,30 width_8" style="stroke-width: 2"/><line x1="404" x2="404" y1="208" y2="241.5" class="net_23,24,25,26,27,28,29,30 width_8" style="stroke-width: 2"/><line x1="404" x2="426" y1="241.5" y2="241.5" class="net_23,24,25,26,27,28,29,30 width_8" style="stroke-width: 2"/><line x1="296" x2="313" y1="58.5" y2="58.5" class="net_23,24,25,26,27,28,29,30 width_8" style="stroke-width: 2"/><line x1="313" x2="313" y1="58.5" y2="175" class="net_23,24,25,26,27,28,29,30 width_8" style="stroke-width: 2"/><line x1="313" x2="574" y1="175" y2="175" class="net_23,24,25,26,27,28,29,30 width_8" style="stroke-width: 2"/><line x1="574" x2="574" y1="175" y2="281" class="net_23,24,25,26,27,28,29,30 width_8" style="stroke-width: 2"/><circle cx="313" cy="175" r="3" style="fill:#000" class="net_23,24,25,26,27,28,29,30 width_8"/><line x1="574" x2="596" y1="281" y2="281" class="net_23,24,25,26,27,28,29,30 width_8" style="stroke-width: 2"/><line x1="296" x2="313" y1="58.5" y2="58.5" class="net_23,24,25,26,27,28,29,30 width_8" style="stroke-width: 2"/><line x1="313" x2="313" y1="58.5" y2="85" class="net_23,24,25,26,27,28,29,30 width_8" style="stroke-width: 2"/><circle cx="313" cy="85" r="3" style="fill:#000" class="net_23,24,25,26,27,28,29,30 width_8"/><line x1="313" x2="596" y1="85" y2="85" class="net_23,24,25,26,27,28,29,30 width_8" style="stroke-width: 2"/><line x1="381" x2="426" y1="281.5" y2="281.5" class="net_103 width_1" style="stroke-width: 1"/><line x1="487" x2="564" y1="241.5" y2="241.5" class="net_104,105,106,107,108,109,110,111 width_8" style="stroke-width: 2"/><line x1="564" x2="564" y1="241.5" y2="301" class="net_104,105,106,107,108,109,110,111 width_8" style="stroke-width: 2"/><line x1="564" x2="596" y1="301" y2="301" class="net_104,105,106,107,108,109,110,111 width_8" style="stroke-width: 2"/><line x1="296" x2="404" y1="1216.5" y2="1216.5" class="net_15,16,17,18,19,20,21,22 width_8" style="stroke-width: 2"/><line x1="404" x2="404" y1="1216.5" y2="1247.5" class="net_15,16,17,18,19,20,21,22 width_8" style="stroke-width: 2"/><line x1="404" x2="426" y1="1247.5" y2="1247.5" class="net_15,16,17,18,19,20,21,22 width_8" style="stroke-width: 2"/><line x1="296" x2="333" y1="1216.5" y2="1216.5" class="net_15,16,17,18,19,20,21,22 width_8" style="stroke-width: 2"/><line x1="333" x2="333" y1="1216.5" y2="1181" class="net_15,16,17,18,19,20,21,22 width_8" style="stroke-width: 2"/><line x1="333" x2="564" y1="1181" y2="1181" class="net_15,16,17,18,19,20,21,22 width_8" style="stroke-width: 2"/><line x1="564" x2="564" y1="1181" y2="1227.5" class="net_15,16,17,18,19,20,21,22 width_8" style="stroke-width: 2"/><circle cx="333" cy="1216.5" r="3" style="fill:#000" class="net_15,16,17,18,19,20,21,22 width_8"/><line x1="564" x2="596" y1="1227.5" y2="1227.5" class="net_15,16,17,18,19,20,21,22 width_8" style="stroke-width: 2"/><line x1="296" x2="333" y1="1216.5" y2="1216.5" class="net_15,16,17,18,19,20,21,22 width_8" style="stroke-width: 2"/><line x1="333" x2="333" y1="1216.5" y2="1373" class="net_15,16,17,18,19,20,21,22 width_8" style="stroke-width: 2"/><line x1="333" x2="596" y1="1373" y2="1373" class="net_15,16,17,18,19,20,21,22 width_8" style="stroke-width: 2"/><line x1="381" x2="426" y1="1287.5" y2="1287.5" class="net_112 width_1" style="stroke-width: 1"/><line x1="487" x2="596" y1="1247.5" y2="1247.5" class="net_113,114,115,116,117,118,119,120 width_8" style="stroke-width: 2"/><line x1="468" x2="504" y1="1030" y2="1030" class="net_84 width_1" style="stroke-width: 1"/><line x1="504" x2="504" y1="1030" y2="1110" class="net_84 width_1" style="stroke-width: 1"/><line x1="504" x2="534" y1="1110" y2="1110" class="net_84 width_1" style="stroke-width: 1"/><line x1="480" x2="534" y1="1130" y2="1130" class="net_5 width_1" style="stroke-width: 1"/><line x1="468" x2="534" y1="1050" y2="1050" class="net_83 width_1" style="stroke-width: 1"/><line x1="480" x2="524" y1="905.5" y2="905.5" class="net_6 width_1" style="stroke-width: 1"/><line x1="524" x2="524" y1="905.5" y2="1070" class="net_6 width_1" style="stroke-width: 1"/><line x1="524" x2="534" y1="1070" y2="1070" class="net_6 width_1" style="stroke-width: 1"/><line x1="554" x2="564" y1="1060" y2="1060" class="net_81 width_1" style="stroke-width: 1"/><line x1="564" x2="564" y1="1060" y2="1100" class="net_81 width_1" style="stroke-width: 1"/><line x1="564" x2="596" y1="1100" y2="1100" class="net_81 width_1" style="stroke-width: 1"/><line x1="554" x2="596" y1="1120" y2="1120" class="net_82 width_1" style="stroke-width: 1"/><rect x="455.5" y="1340" width="16" height="9" class="net_49,50,51,52,53,54,55,56 width_8 busLabel_8" style="fill: white; stroke: none"/><text x="454.5" y="1348" class="net_49,50,51,52,53,54,55,56 width_8 busLabel_8">/8/</text><rect x="455.5" y="116" width="16" height="9" class="net_57,58,59,60,61,62,63,64 width_8 busLabel_8" style="fill: white; stroke: none"/><text x="454.5" y="124" class="net_57,58,59,60,61,62,63,64 width_8 busLabel_8">/8/</text><rect x="455.5" y="136" width="16" height="9" class="net_65,66,67,68,69,70,71,72 width_8 busLabel_8" style="fill: white; stroke: none"/><text x="454.5" y="144" class="net_65,66,67,68,69,70,71,72 width_8 busLabel_8">/8/</text><rect x="455.5" y="841.5" width="16" height="9" class="net_73,74,75,76,77,78,79,80 width_8 busLabel_8" style="fill: white; stroke: none"/><text x="454.5" y="849.5" class="net_73,74,75,76,77,78,79,80 width_8 busLabel_8">/8/</text><rect x="367.5" y="153" width="16" height="9" class="net_81,82 width_2 busLabel_2" style="fill: white; stroke: none"/><text x="366.5" y="161" class="net_81,82 width_2 busLabel_2">/2/</text><rect x="455.5" y="663.5" width="16" height="9" class="net_39,40,41,42,43,44,45,46 width_8 busLabel_8" style="fill: white; stroke: none"/><text x="454.5" y="671.5" class="net_39,40,41,42,43,44,45,46 width_8 busLabel_8">/8/</text><rect x="455.5" y="663.5" width="16" height="9" class="net_39,40,41,42,43,44,45,46 width_8 busLabel_8" style="fill: white; stroke: none"/><text x="454.5" y="671.5" class="net_39,40,41,42,43,44,45,46 width_8 busLabel_8">/8/</text><rect x="455.5" y="663.5" width="16" height="9" class="net_39,40,41,42,43,44,45,46 width_8 busLabel_8" style="fill: white; stroke: none"/><text x="454.5" y="671.5" class="net_39,40,41,42,43,44,45,46 width_8 busLabel_8">/8/</text><rect x="367.5" y="1231.5" width="16" height="9" class="net_7,8,9,10,11,12,13,14 width_8 busLabel_8" style="fill: white; stroke: none"/><text x="366.5" y="1239.5" class="net_7,8,9,10,11,12,13,14 width_8 busLabel_8">/8/</text><rect x="367.5" y="1231.5" width="16" height="9" class="net_7,8,9,10,11,12,13,14 width_8 busLabel_8" style="fill: white; stroke: none"/><text x="366.5" y="1239.5" class="net_7,8,9,10,11,12,13,14 width_8 busLabel_8">/8/</text><rect x="367.5" y="1231.5" width="16" height="9" class="net_7,8,9,10,11,12,13,14 width_8 busLabel_8" style="fill: white; stroke: none"/><text x="366.5" y="1239.5" class="net_7,8,9,10,11,12,13,14 width_8 busLabel_8">/8/</text><rect x="367.5" y="1231.5" width="16" height="9" class="net_7,8,9,10,11,12,13,14 width_8 busLabel_8" style="fill: white; stroke: none"/><text x="366.5" y="1239.5" class="net_7,8,9,10,11,12,13,14 width_8 busLabel_8">/8/</text><rect x="255.5" y="1035" width="16" height="9" class="net_83,84 width_2 busLabel_2" style="fill: white; stroke: none"/><text x="254.5" y="1043" class="net_83,84 width_2 busLabel_2">/2/</text><rect x="255.5" y="1035" width="16" height="9" class="net_83,84 width_2 busLabel_2" style="fill: white; stroke: none"/><text x="254.5" y="1043" class="net_83,84 width_2 busLabel_2">/2/</text><rect x="255.5" y="1035" width="16" height="9" class="net_83,84 width_2 busLabel_2" style="fill: white; stroke: none"/><text x="254.5" y="1043" class="net_83,84 width_2 busLabel_2">/2/</text><rect x="255.5" y="1035" width="16" height="9" class="net_83,84 width_2 busLabel_2" style="fill: white; stroke: none"/><text x="254.5" y="1043" class="net_83,84 width_2 busLabel_2">/2/</text><rect x="255.5" y="1035" width="16" height="9" class="net_83,84 width_2 busLabel_2" style="fill: white; stroke: none"/><text x="254.5" y="1043" class="net_83,84 width_2 busLabel_2">/2/</text><rect x="543" y="750" width="16" height="9" class="net_86,87,88,89,90,91,92,93 width_8 busLabel_8" style="fill: white; stroke: none"/><text x="542" y="758" class="net_86,87,88,89,90,91,92,93 width_8 busLabel_8">/8/</text><rect x="455.5" y="598.5" width="16" height="9" class="net_31,32,33,34,35,36,37,38 width_8 busLabel_8" style="fill: white; stroke: none"/><text x="454.5" y="606.5" class="net_31,32,33,34,35,36,37,38 width_8 busLabel_8">/8/</text><rect x="455.5" y="598.5" width="16" height="9" class="net_31,32,33,34,35,36,37,38 width_8 busLabel_8" style="fill: white; stroke: none"/><text x="454.5" y="606.5" class="net_31,32,33,34,35,36,37,38 width_8 busLabel_8">/8/</text><rect x="455.5" y="598.5" width="16" height="9" class="net_31,32,33,34,35,36,37,38 width_8 busLabel_8" style="fill: white; stroke: none"/><text x="454.5" y="606.5" class="net_31,32,33,34,35,36,37,38 width_8 busLabel_8">/8/</text><rect x="543" y="507" width="16" height="9" class="net_95,96,97,98,99,100,101,102 width_8 busLabel_8" style="fill: white; stroke: none"/><text x="542" y="515" class="net_95,96,97,98,99,100,101,102 width_8 busLabel_8">/8/</text><rect x="455.5" y="80" width="16" height="9" class="net_23,24,25,26,27,28,29,30 width_8 busLabel_8" style="fill: white; stroke: none"/><text x="454.5" y="88" class="net_23,24,25,26,27,28,29,30 width_8 busLabel_8">/8/</text><rect x="455.5" y="80" width="16" height="9" class="net_23,24,25,26,27,28,29,30 width_8 busLabel_8" style="fill: white; stroke: none"/><text x="454.5" y="88" class="net_23,24,25,26,27,28,29,30 width_8 busLabel_8">/8/</text><rect x="455.5" y="80" width="16" height="9" class="net_23,24,25,26,27,28,29,30 width_8 busLabel_8" style="fill: white; stroke: none"/><text x="454.5" y="88" class="net_23,24,25,26,27,28,29,30 width_8 busLabel_8">/8/</text><rect x="543" y="236.5" width="16" height="9" class="net_104,105,106,107,108,109,110,111 width_8 busLabel_8" style="fill: white; stroke: none"/><text x="542" y="244.5" class="net_104,105,106,107,108,109,110,111 width_8 busLabel_8">/8/</text><rect x="455.5" y="1368" width="16" height="9" class="net_15,16,17,18,19,20,21,22 width_8 busLabel_8" style="fill: white; stroke: none"/><text x="454.5" y="1376" class="net_15,16,17,18,19,20,21,22 width_8 busLabel_8">/8/</text><rect x="455.5" y="1368" width="16" height="9" class="net_15,16,17,18,19,20,21,22 width_8 busLabel_8" style="fill: white; stroke: none"/><text x="454.5" y="1376" class="net_15,16,17,18,19,20,21,22 width_8 busLabel_8">/8/</text><rect x="455.5" y="1368" width="16" height="9" class="net_15,16,17,18,19,20,21,22 width_8 busLabel_8" style="fill: white; stroke: none"/><text x="454.5" y="1376" class="net_15,16,17,18,19,20,21,22 width_8 busLabel_8">/8/</text><rect x="543" y="1242.5" width="16" height="9" class="net_113,114,115,116,117,118,119,120 width_8 busLabel_8" style="fill: white; stroke: none"/><text x="542" y="1250.5" class="net_113,114,115,116,117,118,119,120 width_8 busLabel_8">/8/</text></svg>