<svg xmlns="http://www.w3.org/2000/svg" xmlns:xlink="http://www.w3.org/1999/xlink" xmlns:s="https://github.com/nturley/netlistsvg" width="954" height="594.5"><style>    svg {
        stroke:#000;
        fill:none;
    }
    text {
        fill:#000;
        stroke:none;
        font-size:10px;
        font-weight: bold;
        font-family: "Courier New", monospace;
    }
    line {
        stroke-linecap: round;
    }
    .nodelabel {
        text-anchor: middle;
    }
    .inputPortLabel {
        text-anchor: end;
    }
    .splitjoinBody {
        fill:#000;
    }</style><g s:type="not" transform="translate(895,20)" s:width="30" s:height="20" id="cell_$logic_not$/c:/Users/a1321/Desktop/fpga_project/cpu/user/src/the_mux_switch_2.v:22$2"><s:alias val="$_NOT_"/><s:alias val="$not"/><s:alias val="$logic_not"/><path style="fill:#FFE680" d="M0,0 L0,20 L20,10 Z" class="cell_$logic_not$/c:/Users/a1321/Desktop/fpga_project/cpu/user/src/the_mux_switch_2.v:22$2"/><circle cx="24" cy="10" r="3" class="cell_$logic_not$/c:/Users/a1321/Desktop/fpga_project/cpu/user/src/the_mux_switch_2.v:22$2"/><g s:x="-1" s:y="10" s:pid="A"/><g s:x="27" s:y="10" s:pid="Y"/></g><g s:type="generic" transform="translate(752,384.5)" s:width="60" s:height="45" id="cell_$procdff$8"><text x="30" y="-4" class="nodelabel cell_$procdff$8" s:attribute="ref">$adff-bus-bus</text><rect style="fill:#EDF5FF" width="60" height="65" rx="5" ry="5" s:generic="body" class="cell_$procdff$8"/><g transform="translate(0,15)" s:x="0" s:y="15" s:pid="in0" id="port_$procdff$8~ARST"><text x="-3" y="-4" class="inputPortLabel cell_$procdff$8">ARST</text></g><g transform="translate(0,35)" s:x="0" s:y="15" s:pid="in0" id="port_$procdff$8~CLK"><text x="-3" y="-4" class="inputPortLabel cell_$procdff$8">CLK</text></g><g transform="translate(0,55)" s:x="0" s:y="15" s:pid="in0" id="port_$procdff$8~D"><text x="-3" y="-4" class="inputPortLabel cell_$procdff$8">D</text></g><g transform="translate(60,15)" s:x="60" s:y="15" s:pid="out0" id="port_$procdff$8~Q"><text x="5" y="-4" style="fill:#000; stroke:none" class="cell_$procdff$8">Q</text></g></g><g s:type="generic" transform="translate(227,484.5)" s:width="60" s:height="45" id="cell_$procdff$9"><text x="30" y="-4" class="nodelabel cell_$procdff$9" s:attribute="ref">$adff-bus-bus</text><rect style="fill:#EDF5FF" width="60" height="65" rx="5" ry="5" s:generic="body" class="cell_$procdff$9"/><g transform="translate(0,15)" s:x="0" s:y="15" s:pid="in0" id="port_$procdff$9~ARST"><text x="-3" y="-4" class="inputPortLabel cell_$procdff$9">ARST</text></g><g transform="translate(0,35)" s:x="0" s:y="15" s:pid="in0" id="port_$procdff$9~CLK"><text x="-3" y="-4" class="inputPortLabel cell_$procdff$9">CLK</text></g><g transform="translate(0,55)" s:x="0" s:y="15" s:pid="in0" id="port_$procdff$9~D"><text x="-3" y="-4" class="inputPortLabel cell_$procdff$9">D</text></g><g transform="translate(60,15)" s:x="60" s:y="15" s:pid="out0" id="port_$procdff$9~Q"><text x="5" y="-4" style="fill:#000; stroke:none" class="cell_$procdff$9">Q</text></g></g><g s:type="generic" transform="translate(585,424.5)" s:width="60" s:height="45" id="cell_$procmux$3"><text x="30" y="-4" class="nodelabel cell_$procmux$3" s:attribute="ref">$pmux-bus-bus</text><rect style="fill:#EDF5FF" width="60" height="65" rx="5" ry="5" s:generic="body" class="cell_$procmux$3"/><g transform="translate(0,15)" s:x="0" s:y="15" s:pid="in0" id="port_$procmux$3~A"><text x="-3" y="-4" class="inputPortLabel cell_$procmux$3">A</text></g><g transform="translate(0,35)" s:x="0" s:y="15" s:pid="in0" id="port_$procmux$3~B"><text x="-3" y="-4" class="inputPortLabel cell_$procmux$3">B</text></g><g transform="translate(0,55)" s:x="0" s:y="15" s:pid="in0" id="port_$procmux$3~S"><text x="-3" y="-4" class="inputPortLabel cell_$procmux$3">S</text></g><g transform="translate(60,15)" s:x="60" s:y="15" s:pid="out0" id="port_$procmux$3~Y"><text x="5" y="-4" style="fill:#000; stroke:none" class="cell_$procmux$3">Y</text></g></g><g s:type="eq" transform="translate(413.5,367.5)" s:width="30" s:height="30" id="cell_$procmux$4_CMP0"><s:alias val="$eq"/><s:alias val="$eqx"/><circle r="15" cx="12.5" cy="12.5" class="cell_$procmux$4_CMP0"/><line x1="7.5" x2="17.5" y1="10" y2="10" class="cell_$procmux$4_CMP0"/><line x1="7.5" x2="17.5" y1="15" y2="15" class="cell_$procmux$4_CMP0"/><g s:x="0" s:y="2.5" s:pid="A"/><g s:x="0" s:y="22.5" s:pid="B"/><g s:x="27.5" s:y="12.5" s:pid="Y"/></g><g s:type="eq" transform="translate(413.5,432.5)" s:width="30" s:height="30" id="cell_$procmux$5_CMP0"><s:alias val="$eq"/><s:alias val="$eqx"/><circle r="15" cx="12.5" cy="12.5" class="cell_$procmux$5_CMP0"/><line x1="7.5" x2="17.5" y1="10" y2="10" class="cell_$procmux$5_CMP0"/><line x1="7.5" x2="17.5" y1="15" y2="15" class="cell_$procmux$5_CMP0"/><g s:x="0" s:y="2.5" s:pid="A"/><g s:x="0" s:y="22.5" s:pid="B"/><g s:x="27.5" s:y="12.5" s:pid="Y"/></g><g s:type="eq" transform="translate(413.5,497.5)" s:width="30" s:height="30" id="cell_$procmux$6_CMP0"><s:alias val="$eq"/><s:alias val="$eqx"/><circle r="15" cx="12.5" cy="12.5" class="cell_$procmux$6_CMP0"/><line x1="7.5" x2="17.5" y1="10" y2="10" class="cell_$procmux$6_CMP0"/><line x1="7.5" x2="17.5" y1="15" y2="15" class="cell_$procmux$6_CMP0"/><g s:x="0" s:y="2.5" s:pid="A"/><g s:x="0" s:y="22.5" s:pid="B"/><g s:x="27.5" s:y="12.5" s:pid="Y"/></g><g s:type="not" transform="translate(414,562.5)" s:width="30" s:height="20" id="cell_$procmux$7_CMP0"><s:alias val="$_NOT_"/><s:alias val="$not"/><s:alias val="$logic_not"/><path style="fill:#FFE680" d="M0,0 L0,20 L20,10 Z" class="cell_$procmux$7_CMP0"/><circle cx="24" cy="10" r="3" class="cell_$procmux$7_CMP0"/><g s:x="-1" s:y="10" s:pid="A"/><g s:x="27" s:y="10" s:pid="Y"/></g><g s:type="inputExt" transform="translate(12,542)" s:width="30" s:height="20" id="cell_I9"><text x="15" y="-4" class="nodelabel cell_I9" s:attribute="ref">I9</text><s:alias val="$_inputExt_"/><path style="fill:#FDF766" d="M0,0 L0,16 L15,16 L24,8 L15,0 Z" class="cell_I9"/><g s:x="24" s:y="8" s:pid="Y"/></g><g s:type="inputExt" transform="translate(12,477)" s:width="30" s:height="20" id="cell_I8"><text x="15" y="-4" class="nodelabel cell_I8" s:attribute="ref">I8</text><s:alias val="$_inputExt_"/><path style="fill:#FDF766" d="M0,0 L0,16 L15,16 L24,8 L15,0 Z" class="cell_I8"/><g s:x="24" s:y="8" s:pid="Y"/></g><g s:type="inputExt" transform="translate(330,311)" s:width="30" s:height="20" id="cell_input_R0"><text x="15" y="-4" class="nodelabel cell_input_R0" s:attribute="ref">input_R0</text><s:alias val="$_inputExt_"/><path style="fill:#FDF766" d="M0,0 L0,16 L15,16 L24,8 L15,0 Z" class="cell_input_R0"/><g s:x="24" s:y="8" s:pid="Y"/></g><g s:type="inputExt" transform="translate(330,246)" s:width="30" s:height="20" id="cell_input_R1"><text x="15" y="-4" class="nodelabel cell_input_R1" s:attribute="ref">input_R1</text><s:alias val="$_inputExt_"/><path style="fill:#FDF766" d="M0,0 L0,16 L15,16 L24,8 L15,0 Z" class="cell_input_R1"/><g s:x="24" s:y="8" s:pid="Y"/></g><g s:type="inputExt" transform="translate(330,181)" s:width="30" s:height="20" id="cell_input_R2"><text x="15" y="-4" class="nodelabel cell_input_R2" s:attribute="ref">input_R2</text><s:alias val="$_inputExt_"/><path style="fill:#FDF766" d="M0,0 L0,16 L15,16 L24,8 L15,0 Z" class="cell_input_R2"/><g s:x="24" s:y="8" s:pid="Y"/></g><g s:type="inputExt" transform="translate(330,116)" s:width="30" s:height="20" id="cell_input_R3"><text x="15" y="-4" class="nodelabel cell_input_R3" s:attribute="ref">input_R3</text><s:alias val="$_inputExt_"/><path style="fill:#FDF766" d="M0,0 L0,16 L15,16 L24,8 L15,0 Z" class="cell_input_R3"/><g s:x="24" s:y="8" s:pid="Y"/></g><g s:type="outputExt" transform="translate(894,392)" s:width="30" s:height="20" id="cell_output_x"><text x="15" y="-4" class="nodelabel cell_output_x" s:attribute="ref">output_x</text><s:alias val="$_outputExt_"/><path style="fill:#66FDD9" d="M24,0 L24,16 L10,16 L0,8 L10,0 Z" class="cell_output_x"/><g s:x="0" s:y="8" s:pid="A"/></g><g s:type="inputExt" transform="translate(125,87)" s:width="30" s:height="20" id="cell_sys_clk"><text x="15" y="-4" class="nodelabel cell_sys_clk" s:attribute="ref">sys_clk</text><s:alias val="$_inputExt_"/><path style="fill:#FDF766" d="M0,0 L0,16 L15,16 L24,8 L15,0 Z" class="cell_sys_clk"/><g s:x="24" s:y="8" s:pid="Y"/></g><g s:type="inputExt" transform="translate(125,22)" s:width="30" s:height="20" id="cell_sys_rst"><text x="15" y="-4" class="nodelabel cell_sys_rst" s:attribute="ref">sys_rst</text><s:alias val="$_inputExt_"/><path style="fill:#FDF766" d="M0,0 L0,16 L15,16 L24,8 L15,0 Z" class="cell_sys_rst"/><g s:x="24" s:y="8" s:pid="Y"/></g><g s:type="join" transform="translate(84,519.5)" s:width="4" s:height="40" id="cell_$join$,3,2,"><rect width="5" height="40" class="splitjoinBody" s:generic="body"/><s:alias val="$_join_"/><g s:x="5" s:y="20" s:pid="out"/><g transform="translate(0,10)" s:x="0" s:y="10" s:pid="in0"><text x="-3" y="-4" class="inputPortLabel">0</text></g><g transform="translate(0,30)" s:x="0" s:y="10" s:pid="in0"><text x="-3" y="-4" class="inputPortLabel">1</text></g></g><g s:type="join" transform="translate(498,203.5)" s:width="4" s:height="40" id="cell_$join$,28,29,30,31,32,33,34,35,20,21,22,23,24,25,26,27,12,13,14,15,16,17,18,19,4,5,6,7,8,9,10,11,"><rect width="5" height="80" class="splitjoinBody" s:generic="body"/><s:alias val="$_join_"/><g s:x="5" s:y="20" s:pid="out"/><g transform="translate(0,10)" s:x="0" s:y="10" s:pid="in0"><text x="-3" y="-4" class="inputPortLabel">0:7</text></g><g transform="translate(0,30)" s:x="0" s:y="10" s:pid="in0"><text x="-3" y="-4" class="inputPortLabel">8:15</text></g><g transform="translate(0,50)" s:x="0" s:y="10" s:pid="in0"><text x="-3" y="-4" class="inputPortLabel">16:23</text></g><g transform="translate(0,70)" s:x="0" s:y="10" s:pid="in0"><text x="-3" y="-4" class="inputPortLabel">24:31</text></g></g><g s:type="join" transform="translate(493.75,459.5)" s:width="4" s:height="40" id="cell_$join$,57,58,59,60,"><rect width="5" height="80" class="splitjoinBody" s:generic="body"/><s:alias val="$_join_"/><g s:x="5" s:y="20" s:pid="out"/><g transform="translate(0,10)" s:x="0" s:y="10" s:pid="in0"><text x="-3" y="-4" class="inputPortLabel">0</text></g><g transform="translate(0,30)" s:x="0" s:y="10" s:pid="in0"><text x="-3" y="-4" class="inputPortLabel">1</text></g><g transform="translate(0,50)" s:x="0" s:y="10" s:pid="in0"><text x="-3" y="-4" class="inputPortLabel">2</text></g><g transform="translate(0,70)" s:x="0" s:y="10" s:pid="in0"><text x="-3" y="-4" class="inputPortLabel">3</text></g></g><line x1="149" x2="894" y1="30" y2="30" class="net_45 width_1" style="stroke-width: 1"/><line x1="149" x2="712" y1="30" y2="30" class="net_45 width_1" style="stroke-width: 1"/><line x1="712" x2="712" y1="30" y2="400" class="net_45 width_1" style="stroke-width: 1"/><circle cx="712" cy="30" r="2" style="fill:#000" class="net_45 width_1"/><line x1="712" x2="752" y1="400" y2="400" class="net_45 width_1" style="stroke-width: 1"/><line x1="149" x2="187" y1="30" y2="30" class="net_45 width_1" style="stroke-width: 1"/><line x1="187" x2="187" y1="30" y2="500" class="net_45 width_1" style="stroke-width: 1"/><circle cx="187" cy="30" r="2" style="fill:#000" class="net_45 width_1"/><line x1="187" x2="227" y1="500" y2="500" class="net_45 width_1" style="stroke-width: 1"/><line x1="149" x2="702" y1="95" y2="95" class="net_44 width_1" style="stroke-width: 1"/><line x1="702" x2="702" y1="95" y2="420" class="net_44 width_1" style="stroke-width: 1"/><line x1="702" x2="752" y1="420" y2="420" class="net_44 width_1" style="stroke-width: 1"/><line x1="149" x2="177" y1="95" y2="95" class="net_44 width_1" style="stroke-width: 1"/><line x1="177" x2="177" y1="95" y2="520" class="net_44 width_1" style="stroke-width: 1"/><circle cx="177" cy="95" r="2" style="fill:#000" class="net_44 width_1"/><line x1="177" x2="227" y1="520" y2="520" class="net_44 width_1" style="stroke-width: 1"/><line x1="646" x2="752" y1="440" y2="440" class="net_47,48,49,50,51,52,53,54 width_8" style="stroke-width: 2"/><line x1="90" x2="227" y1="540" y2="540" class="net_3,2 width_2" style="stroke-width: 2"/><line x1="504" x2="553" y1="224" y2="224" class="net_28,29,30,31,32,33,34,35,20,21,22,23,24,25,26,27,12,13,14,15,16,17,18,19,4,5,6,7,8,9,10,11 width_32" style="stroke-width: 2"/><line x1="553" x2="553" y1="224" y2="460" class="net_28,29,30,31,32,33,34,35,20,21,22,23,24,25,26,27,12,13,14,15,16,17,18,19,4,5,6,7,8,9,10,11 width_32" style="stroke-width: 2"/><line x1="553" x2="585" y1="460" y2="460" class="net_28,29,30,31,32,33,34,35,20,21,22,23,24,25,26,27,12,13,14,15,16,17,18,19,4,5,6,7,8,9,10,11 width_32" style="stroke-width: 2"/><line x1="499.75" x2="585" y1="480" y2="480" class="net_57,58,59,60 width_4" style="stroke-width: 2"/><line x1="288" x2="305" y1="500" y2="500" class="net_55,56 width_2" style="stroke-width: 2"/><line x1="305" x2="305" y1="500" y2="370" class="net_55,56 width_2" style="stroke-width: 2"/><circle cx="305" cy="500" r="3" style="fill:#000" class="net_55,56 width_2"/><line x1="305" x2="413.5" y1="370" y2="370" class="net_55,56 width_2" style="stroke-width: 2"/><line x1="288" x2="305" y1="500" y2="500" class="net_55,56 width_2" style="stroke-width: 2"/><line x1="305" x2="305" y1="500" y2="435" class="net_55,56 width_2" style="stroke-width: 2"/><circle cx="305" cy="435" r="3" style="fill:#000" class="net_55,56 width_2"/><line x1="305" x2="413.5" y1="435" y2="435" class="net_55,56 width_2" style="stroke-width: 2"/><line x1="288" x2="413.5" y1="500" y2="500" class="net_55,56 width_2" style="stroke-width: 2"/><line x1="288" x2="305" y1="500" y2="500" class="net_55,56 width_2" style="stroke-width: 2"/><line x1="305" x2="305" y1="500" y2="572.5" class="net_55,56 width_2" style="stroke-width: 2"/><line x1="305" x2="413" y1="572.5" y2="572.5" class="net_55,56 width_2" style="stroke-width: 2"/><line x1="813" x2="894" y1="400" y2="400" class="net_36,37,38,39,40,41,42,43 width_8" style="stroke-width: 2"/><line x1="36" x2="52" y1="485" y2="485" class="net_3 width_1" style="stroke-width: 1"/><line x1="52" x2="52" y1="485" y2="530" class="net_3 width_1" style="stroke-width: 1"/><line x1="52" x2="84" y1="530" y2="530" class="net_3 width_1" style="stroke-width: 1"/><line x1="36" x2="84" y1="550" y2="550" class="net_2 width_1" style="stroke-width: 1"/><line x1="354" x2="464" y1="124" y2="124" class="net_28,29,30,31,32,33,34,35 width_8" style="stroke-width: 2"/><line x1="464" x2="464" y1="124" y2="214" class="net_28,29,30,31,32,33,34,35 width_8" style="stroke-width: 2"/><line x1="464" x2="498" y1="214" y2="214" class="net_28,29,30,31,32,33,34,35 width_8" style="stroke-width: 2"/><line x1="354" x2="454" y1="189" y2="189" class="net_20,21,22,23,24,25,26,27 width_8" style="stroke-width: 2"/><line x1="454" x2="454" y1="189" y2="234" class="net_20,21,22,23,24,25,26,27 width_8" style="stroke-width: 2"/><line x1="454" x2="498" y1="234" y2="234" class="net_20,21,22,23,24,25,26,27 width_8" style="stroke-width: 2"/><line x1="354" x2="498" y1="254" y2="254" class="net_12,13,14,15,16,17,18,19 width_8" style="stroke-width: 2"/><line x1="354" x2="498.5" y1="319" y2="319" class="net_4,5,6,7,8,9,10,11 width_8" style="stroke-width: 2"/><line x1="498.5" x2="498.5" y1="319" y2="274.5" class="net_4,5,6,7,8,9,10,11 width_8" style="stroke-width: 2"/><line x1="441" x2="464" y1="380" y2="380" class="net_57 width_1" style="stroke-width: 1"/><line x1="464" x2="464" y1="380" y2="470" class="net_57 width_1" style="stroke-width: 1"/><line x1="464" x2="493.75" y1="470" y2="470" class="net_57 width_1" style="stroke-width: 1"/><line x1="441" x2="454" y1="445" y2="445" class="net_58 width_1" style="stroke-width: 1"/><line x1="454" x2="454" y1="445" y2="490" class="net_58 width_1" style="stroke-width: 1"/><line x1="454" x2="493.75" y1="490" y2="490" class="net_58 width_1" style="stroke-width: 1"/><line x1="441" x2="493.75" y1="510" y2="510" class="net_59 width_1" style="stroke-width: 1"/><line x1="441" x2="494.25" y1="572.5" y2="572.5" class="net_60 width_1" style="stroke-width: 1"/><line x1="494.25" x2="494.25" y1="572.5" y2="530.5" class="net_60 width_1" style="stroke-width: 1"/><rect x="689" y="435" width="16" height="9" class="net_47,48,49,50,51,52,53,54 width_8 busLabel_8" style="fill: white; stroke: none"/><text x="688" y="443" class="net_47,48,49,50,51,52,53,54 width_8 busLabel_8">/8/</text><rect x="145" y="535" width="16" height="9" class="net_3,2 width_2 busLabel_2" style="fill: white; stroke: none"/><text x="144" y="543" class="net_3,2 width_2 busLabel_2">/2/</text><rect x="540" y="219" width="22" height="9" class="net_28,29,30,31,32,33,34,35,20,21,22,23,24,25,26,27,12,13,14,15,16,17,18,19,4,5,6,7,8,9,10,11 width_32 busLabel_32" style="fill: white; stroke: none"/><text x="539" y="227" class="net_28,29,30,31,32,33,34,35,20,21,22,23,24,25,26,27,12,13,14,15,16,17,18,19,4,5,6,7,8,9,10,11 width_32 busLabel_32">/32/</text><rect x="540" y="475" width="16" height="9" class="net_57,58,59,60 width_4 busLabel_4" style="fill: white; stroke: none"/><text x="539" y="483" class="net_57,58,59,60 width_4 busLabel_4">/4/</text><rect x="353" y="567.5" width="16" height="9" class="net_55,56 width_2 busLabel_2" style="fill: white; stroke: none"/><text x="352" y="575.5" class="net_55,56 width_2 busLabel_2">/2/</text><rect x="353" y="567.5" width="16" height="9" class="net_55,56 width_2 busLabel_2" style="fill: white; stroke: none"/><text x="352" y="575.5" class="net_55,56 width_2 busLabel_2">/2/</text><rect x="353" y="567.5" width="16" height="9" class="net_55,56 width_2 busLabel_2" style="fill: white; stroke: none"/><text x="352" y="575.5" class="net_55,56 width_2 busLabel_2">/2/</text><rect x="353" y="567.5" width="16" height="9" class="net_55,56 width_2 busLabel_2" style="fill: white; stroke: none"/><text x="352" y="575.5" class="net_55,56 width_2 busLabel_2">/2/</text><rect x="856" y="395" width="16" height="9" class="net_36,37,38,39,40,41,42,43 width_8 busLabel_8" style="fill: white; stroke: none"/><text x="855" y="403" class="net_36,37,38,39,40,41,42,43 width_8 busLabel_8">/8/</text><rect x="427.5" y="119" width="16" height="9" class="net_28,29,30,31,32,33,34,35 width_8 busLabel_8" style="fill: white; stroke: none"/><text x="426.5" y="127" class="net_28,29,30,31,32,33,34,35 width_8 busLabel_8">/8/</text><rect x="427.5" y="184" width="16" height="9" class="net_20,21,22,23,24,25,26,27 width_8 busLabel_8" style="fill: white; stroke: none"/><text x="426.5" y="192" class="net_20,21,22,23,24,25,26,27 width_8 busLabel_8">/8/</text><rect x="427.5" y="249" width="16" height="9" class="net_12,13,14,15,16,17,18,19 width_8 busLabel_8" style="fill: white; stroke: none"/><text x="426.5" y="257" class="net_12,13,14,15,16,17,18,19 width_8 busLabel_8">/8/</text><rect x="427.5" y="314" width="16" height="9" class="net_4,5,6,7,8,9,10,11 width_8 busLabel_8" style="fill: white; stroke: none"/><text x="426.5" y="322" class="net_4,5,6,7,8,9,10,11 width_8 busLabel_8">/8/</text></svg>